<svg width="772" height="461" viewBox="0 0 772 461" fill="none" xmlns="http://www.w3.org/2000/svg">
<mask id="mask0_1_132" style="mask-type:luminance" maskUnits="userSpaceOnUse" x="0" y="0" width="772" height="461">
<path d="M772 0H0V461H772V0Z" fill="white"/>
</mask>
<g mask="url(#mask0_1_132)">
<path d="M382.274 465.289C665.195 465.289 894.548 435.96 894.548 399.78C894.548 363.6 665.195 334.271 382.274 334.271C99.3529 334.271 -130 363.6 -130 399.78C-130 435.96 99.3529 465.289 382.274 465.289Z" fill="#F9F9FB"/>
<path d="M741.995 273.079L725.016 223.417L696.662 233.049L638.754 63.623L574.192 85.549L574.385 86.125L553.563 175.749L523.934 303.249L541.213 341.304L602.177 320.591L624.369 313.05L649.072 304.65L669.244 363.674L733.806 341.742L713.639 282.719L741.995 273.079ZM624.603 257.538L609.96 262.515L581.91 272.049L601.054 177.28L602.852 169.416L632.098 254.992L624.603 257.538Z" fill="#1AB394"/>
<path opacity="0.204" d="M713.64 282.72L733.811 341.748L692.691 324.209L626.961 88.084L602.852 169.412L591.688 215.476L553.563 175.748L574.388 86.124L574.192 85.548L638.754 63.616L696.666 233.048L725.021 223.415L741.998 273.078L713.64 282.72Z" fill="#F9F9FB"/>
<path d="M33.3704 182.443C32.2245 182.51 31.075 182.406 29.9604 182.132C29.3396 181.872 27.453 181.086 10.9778 151.764L13.9395 150.109C20.0945 161.06 29.4228 176.998 31.3986 179.036C33.1918 179.325 43.0447 178.636 51.7773 177.764L52.1173 181.133C46.6172 181.682 38.1804 182.443 33.3704 182.443Z" fill="#4A88E9"/>
<path d="M93.0922 196.661V197.642C93.0922 197.642 92.1896 216.256 78.2197 215.452C78.1846 215.452 78.1515 215.443 78.1194 215.443C69.4771 214.885 58.7818 210.864 51.6078 207.876C47.1006 205.998 43.9754 204.525 43.6264 204.584C42.7177 204.728 54.2124 252.401 54.0569 255.117C54.0312 255.51 53.9544 255.897 53.8283 256.27C53.0139 258.851 50.1706 261.948 48.4636 262.202C48.284 262.228 47.919 261.902 47.4014 261.254C42.2052 254.814 21.636 217.399 21.0764 205.185C20.4746 191.761 27.2805 183.676 36.5106 182.137C43.3185 181.001 63.2268 183.737 73.202 185.25C76.7424 185.793 79.024 186.174 79.024 186.174L93.0922 196.661Z" fill="#002259"/>
<g style="mix-blend-mode:overlay" opacity="0.25">
<path d="M54.0539 255.116C54.0283 255.509 53.9514 255.896 53.8253 256.269C53.0109 258.85 50.1676 261.947 48.4606 262.201C48.281 262.227 47.916 261.901 47.3984 261.253C54.7199 250.953 35.5899 200.8 39.7501 200.653C41.8031 200.585 46.3464 204.063 51.6018 207.872C47.0946 205.994 43.9694 204.521 43.6204 204.58C42.7147 204.726 54.2104 252.4 54.0539 255.116Z" fill="black"/>
</g>
<g style="mix-blend-mode:overlay" opacity="0.25">
<path d="M93.0923 196.661V197.642C93.0923 197.642 92.1896 216.256 78.2197 215.452C80.9697 213.259 81.4792 209.4 81.2756 204.727C81.0369 199.318 76.0203 190.058 73.202 185.249C76.7424 185.792 79.0241 186.173 79.0241 186.173L93.0923 196.661Z" fill="black"/>
</g>
<path d="M63.3552 135.547C62.9481 136.072 62.6819 136.691 62.5819 137.347C62.5819 137.347 62.5648 137.321 62.5317 137.262C62.3693 136.975 61.7836 135.962 61.0273 134.799C59.7536 132.834 57.9975 130.399 56.9354 130.099C55.2304 129.635 50.6861 135.356 44.5481 135.814C44.1391 135.848 43.7285 135.856 43.3185 135.84C36.5597 135.534 29.3957 125.977 35.1506 114.72C35.7127 115.9 36.5769 116.912 37.656 117.654C38.7351 118.395 39.9911 118.84 41.2976 118.944C40.512 118.729 39.824 118.252 39.3482 117.593C38.8724 116.934 38.6376 116.132 38.6829 115.321C46.0415 116.621 49.8717 111.097 56.2293 113.112C62.5869 115.127 62.1807 118.945 62.1807 118.945C62.1807 118.945 67.0209 117.032 68.5313 123.067C69.7459 127.895 65.2216 132.651 63.3552 135.547Z" fill="#002259"/>
<path d="M62.5307 137.264C62.0518 138.915 61.2463 140.455 60.1618 141.791C59.5743 142.617 58.8054 143.298 57.9137 143.782C57.022 144.267 56.0312 144.542 55.0167 144.586C50.7212 144.486 46.4507 138.737 44.5481 135.816C50.6861 135.358 55.2284 129.637 56.9354 130.101C57.9975 130.401 59.7536 132.835 61.0273 134.801C61.7836 135.968 62.3683 136.977 62.5307 137.264Z" fill="url(#paint0_linear_1_132)"/>
<path d="M68.7359 137.848C68.7359 137.848 65.5095 145.196 64.2969 143.587C63.643 142.714 61.7575 142.14 60.1628 141.787C61.2473 140.451 62.0528 138.911 62.5317 137.26C62.5648 137.319 62.5819 137.345 62.5819 137.345C62.6819 136.689 62.9481 136.07 63.3552 135.545C64.9708 136.674 66.8026 137.458 68.7359 137.848Z" fill="url(#paint1_linear_1_132)"/>
<path d="M91.4284 199.901C86.2833 199.148 72.3726 184.065 72.3726 177.573C72.358 176.554 72.2672 175.538 72.1008 174.533C71.0317 167.778 67.1172 157.876 65.4884 150.874C63.5939 142.732 66.3199 139.685 66.3199 139.685C72.6534 128.824 86.9864 150.349 95.1613 167.61L95.1703 167.617C97.9204 173.433 99.7367 178.833 99.9072 182.448C100.49 194.67 96.5684 200.658 91.4284 199.901Z" fill="#F7EA48"/>
<g style="mix-blend-mode:overlay" opacity="0.25">
<path d="M91.4284 199.901C86.2843 199.148 72.3726 184.065 72.3726 177.573C72.358 176.554 72.2671 175.538 72.1008 174.533L72.0657 171.639L77.1084 145.297C77.1084 145.297 84.0698 153.549 85.1821 168.328C86.2943 183.107 102.606 186.328 95.1703 167.617C97.9204 173.433 99.7367 178.833 99.9072 182.448C100.49 194.67 96.5704 200.656 91.4284 199.901Z" fill="black"/>
</g>
<path d="M80.6388 167.322C80.4325 167.469 80.1978 167.571 79.9498 167.622C77.5658 168.283 70.6114 168.182 67.7139 167.615C67.37 167.556 67.0337 167.459 66.711 167.326C64.8054 166.42 66.711 164.203 66.1092 160.283C65.5075 156.363 63.995 144.894 69.8452 141.374C75.9631 137.692 80.4312 151.633 80.6348 158.574C80.8384 165.515 81.9536 166.213 80.6388 167.322Z" fill="#F7EA48"/>
<path d="M79.9498 167.618C79.9498 167.618 79.6709 184.573 76.4284 192.571V192.588C75.4165 195.077 74.1217 196.694 72.4458 196.661C65.4082 196.508 49.6019 179.842 48.1577 179.232C46.7134 178.622 39.5324 179.689 39.7611 178.632C39.9897 177.575 42.793 175.239 45.8138 174.112C48.8347 172.985 48.3101 173.655 67.751 182.561C67.4873 180.851 67.5976 173.453 67.6828 169.261C67.6919 168.626 67.7089 168.068 67.7179 167.611C70.6114 168.178 77.5658 168.279 79.9498 167.618Z" fill="url(#paint2_linear_1_132)"/>
<path d="M59.8559 266.578C60.3494 269.601 39.9918 290.263 41.0519 284.837C42.112 279.411 48.4636 262.202 48.4636 262.202C50.1686 261.948 53.0139 258.851 53.8283 256.27C55.4922 259.147 59.4407 264.072 59.8559 266.578Z" fill="#EF5772"/>
<g style="mix-blend-mode:overlay" opacity="0.25">
<path d="M78.2177 203.122C78.2177 203.122 45.539 197.004 39.0831 199.963C32.6272 202.922 50.8916 254.412 50.8916 254.412" stroke="white" stroke-width="0.46" stroke-miterlimit="10"/>
</g>
<g style="mix-blend-mode:overlay" opacity="0.25">
<path d="M76.4285 192.572C77.0473 189.172 77.5146 179.272 75.7986 175.364C74.6442 172.722 70.3497 170.454 67.6828 169.264C67.6919 168.629 67.7089 168.071 67.718 167.614C70.6114 168.181 77.5658 168.282 79.9538 167.621C79.9498 167.618 79.6709 184.574 76.4285 192.572Z" fill="black"/>
</g>
<path d="M604.567 77.901C603.603 81.3593 602.441 84.7595 601.086 88.085C598.641 94.358 594.948 102.906 589.506 114.824C589.371 120.876 587.436 159.484 586.909 168.371C586.841 169.455 586.799 170.098 586.782 170.183C586.705 170.573 585.305 171.317 583.773 171.698C582.331 172.07 580.785 172.121 580.122 171.241C578.756 169.429 569.528 132.921 569.078 124.32C568.628 115.719 568.169 117.684 578.756 83.446C576.184 84.646 559.511 84.199 559.511 84.199C559.511 84.199 562.567 126.132 562.584 126.437C562.57 126.536 562.542 126.633 562.499 126.724C562.174 127.643 561.675 128.492 561.031 129.224C560.73 129.524 560.429 129.69 560.148 129.605C559.721 129.336 559.343 128.998 559.027 128.605C555.824 125.219 547.048 113.826 542.293 103.205C536.699 90.685 535.331 81.934 540.629 73.188C545.926 64.442 572.754 63.769 572.754 63.769C574.451 64.242 578.356 64.708 582.22 65.623C583.357 65.884 584.494 66.197 585.563 66.553C591.44 68.501 602.636 70.972 605.046 69.584C605.587 71.442 605.705 73.627 604.567 77.901Z" fill="#003145"/>
<path d="M621.284 47.972C620.222 48.572 613.414 48.893 605.085 45.728C605.128 47.192 605.314 49.493 605.527 52.11C605.858 56.232 606.24 61.134 606.146 64.71C606.095 67.258 605.799 69.136 605.085 69.569C605.076 69.579 605.064 69.5851 605.05 69.586C603.769 70.322 600.017 69.967 595.892 69.186C593.225 68.678 590.407 67.993 588.004 67.306C587.129 67.052 586.305 66.8 585.567 66.553C580.847 64.979 574.955 64.379 572.758 63.769C572.205 63.616 571.891 63.469 571.875 63.303C571.807 62.473 573.921 60.595 574.913 58.63C575.033 58.385 575.194 58.021 575.372 57.555C576.415 54.7939 577.31 51.9796 578.053 49.124C578.419 47.66 578.555 46.695 578.233 46.865C577.249 47.39 571.425 58.249 570.745 58.249C569.747 57.8331 568.806 57.2931 567.944 56.642C565.601 55.059 562.655 52.731 562.587 51.621C562.576 51.5515 562.583 51.4805 562.607 51.4143C562.631 51.3481 562.671 51.2889 562.723 51.242C564.089 49.955 574.523 32.458 578.308 28.724C580.782 26.4217 583.895 24.9174 587.24 24.408C589.506 24.35 591.768 24.6123 593.96 25.187C601.465 27.058 608.35 31.78 612.273 34.117C617.339 37.131 620.821 36.301 622.101 37.054C623.382 37.807 622.337 47.362 621.284 47.972Z" fill="#B56183"/>
<g style="mix-blend-mode:overlay" opacity="0.25">
<path d="M593.964 25.183C593.692 28.077 592.666 31.193 589.506 30.948C585.05 30.6 584.09 26.969 583.889 25.275C584.971 24.8611 586.096 24.5689 587.243 24.404C589.509 24.3459 591.772 24.6082 593.964 25.183Z" fill="#002259"/>
</g>
<path d="M592.078 18.877C591.661 17.1736 590.885 15.5778 589.804 14.195C588.574 16.195 583.828 17.218 580.169 17.48C578.842 17.624 577.503 17.587 576.187 17.37C573.614 7.40703 581.638 3.04003 586.103 2.73403C590.568 2.42803 594.575 5.74103 593.362 10.793C597.369 14.729 592.078 18.877 592.078 18.877Z" fill="#002259"/>
<path d="M592.078 18.878C591.77 19.8794 591.37 20.8502 590.882 21.778H590.875C589.872 23.578 588.192 25.178 585.279 24.004C585.177 23.964 585.076 23.9186 584.979 23.868C583.958 23.3676 583.046 22.671 582.295 21.8183C581.545 20.9656 580.971 19.9735 580.606 18.899C580.428 18.4354 580.281 17.9607 580.165 17.478C583.824 17.217 588.57 16.191 589.8 14.193L590 14.421C590.97 15.7617 591.676 17.2743 592.078 18.878Z" fill="url(#paint3_linear_1_132)"/>
<path d="M591.695 26.572C591.247 29.365 586.628 29.212 586.128 27.401C585.864 26.462 585.566 25.556 585.338 24.895C585.137 24.278 584.982 23.88 584.982 23.88V23.871C585.079 23.9216 585.18 23.967 585.282 24.007C588.191 25.184 589.875 23.584 590.878 21.781H590.885C590.571 22.407 591.411 23.193 591.687 24.675C591.802 25.3019 591.805 25.9441 591.695 26.572Z" fill="url(#paint4_linear_1_132)"/>
<path d="M567.715 137.144C567.265 140.615 549.261 154.193 549.562 151.78C549.863 149.367 559.028 128.605 559.028 128.605C559.344 128.998 559.722 129.336 560.149 129.605C561.052 129.868 562.212 127.565 562.5 126.727C564.921 129.756 568.123 134.047 567.715 137.144Z" fill="#002259"/>
<path d="M580.125 199.504C575.889 190.447 580.125 171.242 580.125 171.242C581.484 173.054 586.629 170.936 586.782 170.183C586.799 170.098 586.841 169.456 586.909 168.371C586.909 168.371 587.587 177.571 588.394 185.371C589.2 193.171 584.361 208.552 580.125 199.504Z" fill="#002259"/>
<g style="mix-blend-mode:overlay" opacity="0.25">
<path d="M578.758 83.446C576.186 84.646 559.513 84.199 559.513 84.199C559.513 84.199 562.569 126.132 562.586 126.437C562.572 126.536 562.544 126.633 562.501 126.724C562.176 127.643 561.677 128.492 561.032 129.224C557.957 114.878 551.83 87.367 556.72 82.644C562.978 76.609 579.922 74.999 580.168 76.321C580.413 77.643 578.758 83.446 578.758 83.446Z" fill="black"/>
</g>
<path d="M566.763 63.63C566.536 63.9915 566.431 64.4157 566.462 64.841C566.828 66.241 564.893 83.841 565.597 85.654C566.301 87.467 566.708 93.197 566.299 96.821C565.89 100.445 558.328 102.652 558.328 99.537C558.328 96.422 559.236 89.075 559.541 86.257C559.846 83.439 557.021 63.08 557.776 60.257C558.269 58.421 560.162 55.306 561.418 53.367C562.088 52.327 562.581 51.614 562.581 51.614C562.691 53.383 570.12 58.242 570.739 58.242C569.237 59.9014 567.905 61.7064 566.763 63.63Z" fill="url(#paint5_linear_1_132)"/>
<g style="mix-blend-mode:overlay" opacity="0.25">
<path d="M604.567 77.901C600.928 77.6285 597.498 76.1027 594.864 73.585C591.824 70.554 586.757 67.743 582.227 65.62C583.364 65.881 584.501 66.194 585.57 66.55C591.447 68.498 602.643 70.969 605.053 69.581C605.587 71.442 605.704 73.627 604.567 77.901Z" fill="black"/>
</g>
<g style="mix-blend-mode:overlay" opacity="0.25">
<path d="M601.086 88.084C598.641 94.357 594.948 102.905 589.506 114.823C589.371 120.875 587.436 159.483 586.909 168.37C586.841 169.454 586.799 170.097 586.782 170.182C586.705 170.572 585.305 171.316 583.773 171.697C584.122 158.678 583.662 130.339 585.871 121.908C588.512 111.819 600.347 89.472 601.086 88.084Z" fill="black"/>
</g>
<g style="mix-blend-mode:overlay" opacity="0.25">
<path d="M588.005 67.303C587.13 67.049 586.307 66.797 585.568 66.55C580.849 64.976 574.956 64.376 572.759 63.766C572.206 63.613 571.893 63.466 571.876 63.3C571.808 62.47 573.922 60.592 574.914 58.627C575.906 56.662 579.219 46.327 578.234 46.862C577.249 47.397 571.425 58.244 570.748 58.244C569.75 57.8281 568.809 57.2881 567.947 56.637C568.091 56.39 568.248 56.145 568.43 55.884C572.055 50.55 578.006 43.914 579.017 38.184C579.82 33.96 581.037 36.374 580.834 41.807C580.645 46.684 580.376 61.615 588.005 67.303Z" fill="#002259"/>
</g>
<g style="mix-blend-mode:overlay" opacity="0.25">
<path d="M605.085 69.563C605.076 69.573 605.064 69.5791 605.05 69.58C603.769 70.316 600.017 69.961 595.892 69.18C603.269 61.808 599.245 41.839 600.399 42.864C601.869 43.9601 603.438 44.9179 605.085 45.725C605.237 51.161 607.436 68.133 605.085 69.563Z" fill="#002259"/>
</g>
<path opacity="0.153" d="M570.745 58.246C569.241 59.9039 567.907 61.7076 566.763 63.6301C566.737 63.1811 566.704 62.7661 566.663 62.3951C566.434 60.2371 563.062 55.548 561.425 53.371C562.095 52.331 562.588 51.618 562.588 51.618C562.697 53.387 570.126 58.246 570.745 58.246Z" fill="white"/>
<g style="mix-blend-mode:overlay" opacity="0.25">
<path d="M590.008 14.424C588.191 18.424 582.851 18.894 580.609 18.902C580.431 18.4384 580.284 17.9637 580.168 17.481C583.827 17.22 588.573 16.194 589.803 14.196L590.008 14.424Z" fill="black"/>
</g>
<g style="mix-blend-mode:overlay" opacity="0.25">
<path d="M591.688 24.675C591.311 24.9573 590.876 25.1539 590.415 25.251C588.73 25.7011 586.943 25.5754 585.339 24.894C585.138 24.277 584.983 23.879 584.983 23.879V23.87C585.08 23.9206 585.181 23.966 585.284 24.006C588.192 25.183 589.876 23.583 590.879 21.78H590.886C590.567 22.407 591.407 23.193 591.688 24.675Z" fill="black"/>
</g>
<path d="M618.318 37.965C618.403 37.904 618.492 37.851 618.571 37.797C622.502 35.287 625.426 37.521 625.703 38.215C625.98 38.909 625.786 41.664 621.705 47.971C621.626 48.096 621.543 48.216 621.457 48.348C621.457 48.348 617.664 56.967 615.814 61.085C616.96 65.555 618.174 65.412 616.643 67.728C615.113 70.044 611.368 71.278 610.293 70.928C609.218 70.578 609.013 64.386 609.685 62.854C610.357 61.322 614.254 40.736 618.318 37.965Z" fill="url(#paint6_linear_1_132)"/>
<path opacity="0.153" d="M618.571 37.798C622.502 35.288 625.426 37.522 625.703 38.216C625.98 38.91 625.786 41.665 621.705 47.972C622.436 45.818 623.21 42.855 622.778 40.88C622.629 39.9154 622.103 39.0491 621.314 38.4713C620.525 37.8935 619.539 37.6513 618.571 37.798Z" fill="white"/>
<path d="M497.989 281.297L488.26 231.755C481.061 195.11 467.18 168.377 446.619 151.555C426.049 134.736 400.641 129.279 370.396 135.185C340.152 141.091 318.703 155.629 306.051 178.799C293.402 201.976 290.688 231.949 297.909 268.718L307.672 318.448C314.845 354.964 328.714 381.633 349.278 398.456C357.7 405.42 367.458 410.599 377.955 413.675C392.226 417.847 408.135 418.22 425.682 414.793C434.247 413.187 442.598 410.608 450.574 407.106C467.926 399.353 481.017 387.386 489.845 371.206C502.497 348.031 505.212 318.062 497.989 281.297ZM437.256 347.797C433.927 357.955 426.889 364.084 416.142 366.183C405.013 368.358 395.963 365.24 388.992 356.83C384.238 351.097 380.175 342.59 376.802 331.309V331.289C376.795 331.27 376.789 331.25 376.784 331.23C375.222 325.999 373.813 320.17 372.558 313.743L358.899 244.189C355.697 225.922 355.685 211.82 358.863 201.882C362.042 191.944 369.069 185.913 379.944 183.789C388.235 182.163 395.389 183.554 401.407 187.961H401.414C403.56 189.56 405.492 191.426 407.163 193.514C414.183 202.173 419.614 216.287 423.454 235.854L436.671 303.154C440.389 322.755 440.583 337.635 437.254 347.795L437.256 347.797Z" fill="#1AB394"/>
<path opacity="0.202" d="M442.138 357.089C444.94 361.389 448.666 390.626 450.577 407.106C442.601 410.608 434.25 413.187 425.685 414.793C408.139 418.212 392.23 417.84 377.958 413.675C378.555 412.34 379.082 410.975 379.537 409.586C388.443 382.456 377.312 333.507 376.804 331.306C380.174 342.589 384.237 351.096 388.994 356.827C395.972 365.239 405.022 368.357 416.144 366.18C426.892 364.081 433.93 357.953 437.258 347.794C440.586 337.635 440.391 322.757 436.671 303.16L423.454 235.86C419.616 216.299 414.186 202.186 407.163 193.52C405.492 191.433 403.56 189.566 401.414 187.967C422.884 192.167 440.322 258.444 447.589 290.416C454.857 322.388 455.457 337.18 442.138 357.089Z" fill="#DCDFE5"/>
<path d="M270.609 84.513L205.29 73.322L205.19 73.906L60.9431 235.835L57.9624 276.311L78.652 279.859L114.457 285.996L162.524 294.232L167.092 295.011L163.658 314.98L162.06 324.215L156.807 354.729L199.32 362.018L222.124 365.918L232.413 306.201L261.107 311.11L269.768 260.855L241.071 255.946L270.609 84.513ZM189.07 167.491L175.749 244.756L159.816 242.022L124.967 236.055L144.263 213.09L148.676 207.833L185.469 164.046L190.674 158.171L189.07 167.491Z" fill="#1AB394"/>
<g style="mix-blend-mode:overlay" opacity="0.25">
<path d="M241.073 255.947L269.767 260.856L261.107 311.111L232.413 306.201L222.124 365.919L199.321 362.019L239.4 112.668L270.607 84.515L241.073 255.947Z" fill="#002259"/>
</g>
<path d="M343.192 11.768C343.192 14.0953 342.499 16.3704 341.203 18.3054C339.906 20.2405 338.063 21.7487 335.906 22.6393C333.75 23.5299 331.377 23.763 329.088 23.3089C326.798 22.8549 324.695 21.7342 323.045 20.0886C321.395 18.4429 320.271 16.3462 319.815 14.0637C319.36 11.7811 319.594 9.41515 320.487 7.26501C321.38 5.11488 322.893 3.27712 324.833 1.98415C326.774 0.691172 329.056 0.0010376 331.39 0.0010376C334.52 0.00156787 337.521 1.24148 339.734 3.4481C341.947 5.65473 343.191 8.6474 343.192 11.768Z" fill="#002259"/>
<path d="M622.576 401.737C622.576 403.559 622.034 405.34 621.019 406.855C620.003 408.37 618.56 409.551 616.872 410.248C615.184 410.945 613.326 411.127 611.534 410.772C609.742 410.417 608.096 409.539 606.804 408.251C605.511 406.963 604.632 405.321 604.275 403.534C603.919 401.747 604.102 399.895 604.801 398.212C605.5 396.528 606.684 395.09 608.204 394.078C609.723 393.065 611.509 392.525 613.337 392.525C615.787 392.525 618.137 393.496 619.869 395.223C621.602 396.951 622.575 399.294 622.576 401.737Z" fill="#079FEA"/>
<path d="M160.677 411.165C160.677 412.42 160.304 413.647 159.604 414.691C158.905 415.734 157.911 416.548 156.748 417.028C155.585 417.508 154.305 417.634 153.071 417.389C151.836 417.144 150.702 416.54 149.812 415.652C148.922 414.765 148.316 413.634 148.07 412.403C147.825 411.172 147.951 409.896 148.432 408.737C148.914 407.577 149.73 406.586 150.776 405.889C151.823 405.191 153.054 404.819 154.312 404.819C156 404.819 157.619 405.488 158.813 406.678C160.006 407.868 160.677 409.482 160.677 411.165Z" fill="#002259"/>
<path d="M753.793 161.299C753.793 163.626 753.101 165.901 751.804 167.836C750.507 169.772 748.664 171.28 746.508 172.17C744.351 173.061 741.978 173.294 739.689 172.84C737.4 172.386 735.297 171.265 733.646 169.62C731.996 167.974 730.872 165.877 730.417 163.595C729.961 161.312 730.195 158.946 731.088 156.796C731.981 154.646 733.494 152.808 735.435 151.515C737.375 150.222 739.657 149.532 741.991 149.532C745.121 149.532 748.123 150.772 750.336 152.979C752.549 155.185 753.793 158.178 753.793 161.299Z" fill="#0057FF"/>
<path d="M136.764 75.39C136.764 77.7173 136.072 79.9924 134.775 81.9274C133.478 83.8625 131.635 85.3707 129.479 86.2613C127.322 87.152 124.949 87.385 122.66 86.9309C120.371 86.4769 118.268 85.3562 116.618 83.7106C114.967 82.0649 113.843 79.9682 113.388 77.6857C112.932 75.4031 113.166 73.0371 114.059 70.887C114.953 68.7369 116.465 66.8991 118.406 65.6061C120.347 64.3132 122.628 63.623 124.963 63.623C128.093 63.623 131.094 64.8628 133.307 67.0695C135.521 69.2763 136.764 72.2692 136.764 75.39Z" fill="#EF5772"/>
<path d="M331.39 435.235C331.39 437.562 330.699 439.838 329.402 441.773C328.106 443.708 326.262 445.217 324.106 446.108C321.95 446.999 319.577 447.232 317.287 446.778C314.998 446.324 312.895 445.204 311.244 443.558C309.593 441.913 308.469 439.816 308.014 437.533C307.558 435.251 307.792 432.885 308.685 430.734C309.578 428.584 311.091 426.746 313.032 425.453C314.972 424.16 317.254 423.47 319.588 423.47C322.718 423.47 325.72 424.709 327.933 426.916C330.146 429.122 331.389 432.115 331.39 435.235Z" fill="#EF5772"/>
<path d="M674.533 51.7271C677.046 51.7271 679.084 49.6953 679.084 47.1891C679.084 44.6828 677.046 42.6511 674.533 42.6511C672.019 42.6511 669.981 44.6828 669.981 47.1891C669.981 49.6953 672.019 51.7271 674.533 51.7271Z" fill="#EF5772"/>
<path d="M326.838 122.397C329.351 122.397 331.389 120.365 331.389 117.859C331.389 115.353 329.351 113.321 326.838 113.321C324.324 113.321 322.286 115.353 322.286 117.859C322.286 120.365 324.324 122.397 326.838 122.397Z" fill="#079FEA"/>
<path d="M195.223 56.4081C195.223 57.3058 194.957 58.1835 194.457 58.9301C193.956 59.6766 193.246 60.2585 192.414 60.6022C191.582 60.9459 190.667 61.036 189.783 60.861C188.9 60.6859 188.089 60.2537 187.452 59.619C186.816 58.9842 186.382 58.1754 186.206 57.2949C186.03 56.4144 186.121 55.5017 186.465 54.6723C186.81 53.8428 187.393 53.1339 188.142 52.6351C188.89 52.1363 189.771 51.8701 190.671 51.8701C191.269 51.8699 191.861 51.9872 192.413 52.2152C192.965 52.4432 193.467 52.7774 193.89 53.1989C194.313 53.6203 194.648 54.1206 194.877 54.6712C195.106 55.2218 195.223 55.812 195.223 56.4081Z" fill="#0057FF"/>
</g>
<defs>
<linearGradient id="paint0_linear_1_132" x1="52.7302" y1="144.223" x2="53.8103" y2="128.497" gradientUnits="userSpaceOnUse">
<stop stop-color="#FFC5AE"/>
<stop offset="1" stop-color="#EA8B6A"/>
</linearGradient>
<linearGradient id="paint1_linear_1_132" x1="73.6912" y1="138.978" x2="59.1744" y2="140.115" gradientUnits="userSpaceOnUse">
<stop stop-color="#FFC5AE"/>
<stop offset="1" stop-color="#EA8B6A"/>
</linearGradient>
<linearGradient id="paint2_linear_1_132" x1="54.6677" y1="198.085" x2="61.772" y2="149.501" gradientUnits="userSpaceOnUse">
<stop stop-color="#FFC5AE"/>
<stop offset="1" stop-color="#EA8B6A"/>
</linearGradient>
<linearGradient id="paint3_linear_1_132" x1="585.895" y1="23.3128" x2="586.342" y2="9.50023" gradientUnits="userSpaceOnUse">
<stop stop-color="#FFC5AE"/>
<stop offset="1" stop-color="#EA8B6A"/>
</linearGradient>
<linearGradient id="paint4_linear_1_132" x1="588.589" y1="29.1805" x2="588.114" y2="19.3803" gradientUnits="userSpaceOnUse">
<stop stop-color="#FFC5AE"/>
<stop offset="1" stop-color="#EA8B6A"/>
</linearGradient>
<linearGradient id="paint5_linear_1_132" x1="558.223" y1="103.197" x2="593.866" y2="86.9759" gradientUnits="userSpaceOnUse">
<stop stop-color="#FFC5AE"/>
<stop offset="1" stop-color="#EA8B6A"/>
</linearGradient>
<linearGradient id="paint6_linear_1_132" x1="610.024" y1="72.4982" x2="642.285" y2="45.902" gradientUnits="userSpaceOnUse">
<stop stop-color="#FFC5AE"/>
<stop offset="1" stop-color="#EA8B6A"/>
</linearGradient>
</defs>
</svg>
