<svg width="408" height="423" viewBox="0 0 408 423" fill="none" xmlns="http://www.w3.org/2000/svg">
<path d="M54.7812 65.3439C54.7812 65.3439 52.4392 59.616 38.0104 61.315C23.5815 63.0139 22.0888 82.1149 14.8805 95.6935C7.67219 109.274 0.0148321 115.863 0.0148321 115.863C0.0148321 115.863 -1.04093 124.139 14.6621 128.811C30.3652 133.483 61.1402 125.681 61.1402 125.681C61.1402 125.681 65.1205 89.5292 59.2107 78.4986C53.3008 67.4676 54.7812 65.3439 54.7812 65.3439Z" fill="#14142B"/>
<path d="M93.6391 388.466L74.0892 389.679C74.0892 389.679 69.127 352.331 60.0014 297.48C60.0014 297.298 60.0014 297.091 59.9163 296.885C56.1787 274.496 52.3075 255.625 48.8125 246.779C48.8125 246.779 40.9963 279.018 39.6615 310.193C38.3266 341.369 32.1011 395.916 32.1011 395.916L14.0317 398.598C14.0317 398.598 14.3727 327.999 16.1445 307.492C17.9161 286.983 9.84624 211.016 23.7532 192.206H74.054C74.054 192.206 90.2048 260.936 91.6125 290.522C93.0202 320.107 93.6391 388.466 93.6391 388.466Z" fill="#14142A"/>
<path d="M28.7271 395.908L28.4359 401.733L27.7564 415.214L17.6355 416.719L17.4049 402.17L17.3201 396.575L28.7271 395.908Z" fill="#FFDCC3"/>
<path d="M90.1708 410.675L78.8488 413.829C78.8488 413.829 78.5817 407.023 78.3148 400.48C78.1449 396.27 77.9749 392.169 77.8657 390.068C77.8657 389.257 77.7929 388.759 77.7687 388.65L89.9768 387.436V391.271L90.0616 399.934L90.1708 410.675Z" fill="#FFDCC3"/>
<path d="M31.8334 412.229C31.8334 412.229 33.7144 404.693 36.6875 405.069C39.6606 405.446 31.8334 412.229 31.8334 412.229Z" stroke="#FFC700" stroke-width="0.216643" stroke-miterlimit="10"/>
<path d="M32.687 412.23C32.687 412.23 39.7619 407.242 41.0726 409.802C42.3831 412.362 32.687 412.23 32.687 412.23Z" stroke="#FFC700" stroke-width="0.216643" stroke-miterlimit="10"/>
<path d="M94.5117 412.993C94.5117 412.993 96.0893 405.02 97.8733 405.02C99.6571 405.02 94.5117 412.993 94.5117 412.993Z" stroke="#FFC700" stroke-width="0.216643" stroke-miterlimit="10"/>
<path d="M94.1395 415.469C94.1395 415.469 98.2898 407.301 100.462 409.061C102.634 410.821 94.1395 415.469 94.1395 415.469Z" stroke="#FFC700" stroke-width="0.216643" stroke-miterlimit="10"/>
<path d="M40.6756 422.009C40.6756 422.009 19.099 422.566 17.5336 422.373C15.9681 422.179 14.2328 422.094 14.1115 420.395C14.1115 419.569 14.8517 414.558 14.973 412.811C15.0944 411.062 14.6575 410.153 16.854 409.594C19.0505 409.037 29.7173 407.799 31.0037 409.122C32.29 410.444 36.683 415.48 39.9352 416.063C43.1876 416.645 45.918 416.415 46.1486 418.259C46.3791 420.104 46.452 421.875 40.6756 422.009Z" fill="#14142A"/>
<path d="M102.791 422.009C102.791 422.009 81.2265 422.566 79.6489 422.373C78.0713 422.179 76.518 421.705 76.2631 420.917C76.0084 420.128 76.9792 414.558 77.0884 412.811C77.1976 411.062 76.7728 410.153 78.9694 409.594C81.1658 409.037 91.8326 407.799 93.119 409.122C94.4053 410.444 98.7983 415.48 102.063 416.063C105.327 416.645 108.033 416.415 108.264 418.259C108.494 420.104 108.567 421.875 102.791 422.009Z" fill="#14142A"/>
<path opacity="0.3" d="M59.913 296.872C56.1755 274.483 52.3043 255.612 48.8093 246.766L51.1271 234.048C51.1271 234.048 57.1341 279.434 59.913 296.872Z" fill="black"/>
<path opacity="0.2" d="M28.7054 395.908L28.4142 401.733C25.5744 401.841 19.9194 402.048 17.3832 402.17L17.2982 396.575L28.7054 395.908Z" fill="#F86700"/>
<path opacity="0.2" d="M90.0828 399.923L78.3115 400.48C78.1416 396.269 77.9717 392.167 77.8625 390.068L89.9978 391.282L90.0828 399.923Z" fill="#F86700"/>
<path d="M97.8494 387.425L96.0412 396.66L74.489 398.335L71.6614 387.425H97.8494Z" fill="#14142B"/>
<path d="M35.8766 390.433L33.9834 399.558L11.4846 400.626L11.4968 390.433H35.8766Z" fill="#14142B"/>
<path d="M105.059 164.017C100.205 166.335 86.856 168.871 86.856 168.871C86.856 168.871 78.1187 146.287 75.8129 133.448C75.0895 128.858 72.8971 124.626 69.5647 121.388C66.2324 118.149 61.9398 116.079 57.3309 115.488C51.4332 114.723 26.5317 114.977 17.7942 116.774C9.05686 118.57 7.53996 131.397 6.7633 139.103C5.98664 146.809 1.1204 175.508 5.22212 184.004C9.32383 192.498 23.7041 189.124 23.7041 189.124V192.206H74.0169L72.8034 168.665C72.8034 168.665 77.5605 181.163 84.9387 181.674C92.317 182.183 109.064 169.878 109.064 169.878L105.059 164.017ZM16.4715 177.183C16.4715 177.183 17.0297 162.524 18.0248 158.301L19.5417 166.129L21.6776 177.183H16.4715Z" fill="#FFC700"/>
<path d="M48.472 173.857L56.3843 164.282L67.4879 162.584L69.1869 172.45L60.6923 175.556C60.6923 175.556 56.6027 180.483 48.4357 179.634L48.472 173.857Z" fill="#FFDCC3"/>
<path d="M105.052 164.017L109.166 156.469L119.202 152.245L123 162.524L114.687 165.764C114.687 165.764 112.515 170.546 109.166 169.926L105.052 164.017Z" fill="#FFDCC3"/>
<path d="M48.6414 106.29C48.587 107.162 48.587 108.038 48.6414 108.911C48.7628 110.573 48.4472 113.62 51.7116 115.221C50.0248 118.862 45.9595 127.987 43.496 131.082C39.7462 128.012 30.936 115.621 30.936 115.621C30.936 115.621 37.125 108.911 32.6835 96.2651C32.6835 96.2651 26.446 91.7035 27.6958 89.1914C29.1279 86.2661 33.1931 87.8432 34.0547 89.0809C33.1446 87.7471 28.9095 73.0994 34.0547 67.7115C37.2585 64.3499 40.4622 64.3136 46.4327 64.0708H46.9303C50.7528 63.9373 53.5926 64.0708 53.5926 64.0708C54.8903 65.4688 56.0336 67.0027 57.0025 68.6459C59.7101 73.0661 61.3705 78.0474 61.8566 83.208C62.9852 95.234 60.6188 104.978 48.6414 106.29Z" fill="#FFDCC3"/>
<path d="M24.6258 78.3211C24.6258 78.3211 19.597 71.5798 23.75 67.2103C26.3481 64.4842 33.3354 62.703 38.1675 62.4963C38.0593 63.6379 38.1675 73.6367 24.6258 78.3211Z" fill="#14142B"/>
<path d="M46.4299 67.2607C43.2952 66.944 40.3532 65.5995 38.0625 63.4365L37.6731 63.0271C39.6396 62.9458 41.6091 63.0866 43.5442 63.4465C44.6121 64.5968 45.5528 65.8589 46.3501 67.2109L46.4299 67.2607Z" fill="#14142B"/>
<path opacity="0.2" d="M48.679 108.909C46.0416 108.107 43.7018 106.541 41.9561 104.407C44.0463 105.451 46.3151 106.088 48.6427 106.288C48.6002 107.162 48.6124 108.037 48.679 108.909Z" fill="#F86700"/>
<path opacity="0.2" d="M19.553 166.129L18.0361 158.301V147.064C18.0361 147.064 19.7838 158.92 19.553 166.129Z" fill="black"/>
<path d="M257 317C329.902 317 389 257.902 389 185C389 112.098 329.902 53 257 53C184.098 53 125 112.098 125 185C125 257.902 184.098 317 257 317Z" fill="url(#paint0_linear_8_2)"/>
<g filter="url(#filter0_d_8_2)">
<path d="M207.02 192.14L235.578 220.697L306.969 149.304" stroke="white" stroke-width="13.0213" stroke-linecap="round" stroke-linejoin="round"/>
</g>
<path d="M364.281 300H346.076C341.616 300 338 303.616 338 308.076V326.281C338 330.741 341.616 334.357 346.076 334.357H364.281C368.741 334.357 372.357 330.741 372.357 326.281V308.076C372.357 303.616 368.741 300 364.281 300Z" fill="#FFC700"/>
<path opacity="0.3" d="M179.393 0H145.541C138.063 0 132 6.06251 132 13.541V47.3934C132 54.8719 138.063 60.9344 145.541 60.9344H179.393C186.872 60.9344 192.934 54.8719 192.934 47.3934V13.541C192.934 6.06251 186.872 0 179.393 0Z" fill="#FFC700"/>
<path d="M340.174 64.5932C333.923 57.7924 337.38 46.7762 346.394 44.7639L393.279 34.2985C402.293 32.2862 410.105 40.7871 407.34 49.6L392.962 95.4353C390.197 104.248 378.93 106.764 372.679 99.9629L340.174 64.5932Z" fill="#1AB394"/>
<path d="M149.635 383.269C163.24 383.269 174.269 372.24 174.269 358.635C174.269 345.029 163.24 334 149.635 334C136.029 334 125 345.029 125 358.635C125 372.24 136.029 383.269 149.635 383.269Z" fill="#EF5772"/>
<defs>
<filter id="filter0_d_8_2" x="123.957" y="76.4481" width="266.075" height="237.518" filterUnits="userSpaceOnUse" color-interpolation-filters="sRGB">
<feFlood flood-opacity="0" result="BackgroundImageFix"/>
<feColorMatrix in="SourceAlpha" type="matrix" values="0 0 0 0 0 0 0 0 0 0 0 0 0 0 0 0 0 0 127 0" result="hardAlpha"/>
<feOffset dy="10.2069"/>
<feGaussianBlur stdDeviation="38.2759"/>
<feColorMatrix type="matrix" values="0 0 0 0 0.290196 0 0 0 0 0.227451 0 0 0 0 1 0 0 0 0.3 0"/>
<feBlend mode="normal" in2="BackgroundImageFix" result="effect1_dropShadow_8_2"/>
<feBlend mode="normal" in="SourceGraphic" in2="effect1_dropShadow_8_2" result="shape"/>
</filter>
<linearGradient id="paint0_linear_8_2" x1="494.293" y1="122.475" x2="289.601" y2="758.745" gradientUnits="userSpaceOnUse">
<stop stop-color="#1AB394"/>
<stop offset="1" stop-color="#1AB394" stop-opacity="0"/>
</linearGradient>
</defs>
</svg>
