<svg width="518" height="465" viewBox="0 0 518 465" fill="none" xmlns="http://www.w3.org/2000/svg">
<path d="M54.7812 99.3439C54.7812 99.3439 52.4392 93.616 38.0104 95.315C23.5815 97.0139 22.0888 116.115 14.8805 129.694C7.67219 143.274 0.0148321 149.863 0.0148321 149.863C0.0148321 149.863 -1.04093 158.139 14.6621 162.811C30.3652 167.483 61.1402 159.681 61.1402 159.681C61.1402 159.681 65.1205 123.529 59.2107 112.499C53.3008 101.468 54.7812 99.3439 54.7812 99.3439Z" fill="#14142B"/>
<path d="M93.6391 422.466L74.0892 423.679C74.0892 423.679 69.127 386.331 60.0014 331.48C60.0014 331.298 60.0014 331.091 59.9163 330.885C56.1787 308.496 52.3075 289.625 48.8125 280.779C48.8125 280.779 40.9963 313.018 39.6615 344.193C38.3266 375.369 32.1011 429.916 32.1011 429.916L14.0317 432.598C14.0317 432.598 14.3727 361.999 16.1445 341.492C17.9161 320.983 9.84624 245.016 23.7532 226.206H74.054C74.054 226.206 90.2048 294.936 91.6125 324.522C93.0203 354.107 93.6391 422.466 93.6391 422.466Z" fill="#14142A"/>
<path d="M28.7271 429.908L28.4359 435.733L27.7564 449.214L17.6355 450.719L17.4049 436.17L17.3201 430.575L28.7271 429.908Z" fill="#FFDCC3"/>
<path d="M90.1708 444.675L78.8488 447.829C78.8488 447.829 78.5817 441.023 78.3148 434.48C78.1449 430.27 77.9749 426.169 77.8657 424.068C77.8657 423.257 77.7929 422.759 77.7687 422.65L89.9768 421.436V425.271L90.0616 433.934L90.1708 444.675Z" fill="#FFDCC3"/>
<path d="M31.8334 446.229C31.8334 446.229 33.7144 438.693 36.6875 439.069C39.6606 439.446 31.8334 446.229 31.8334 446.229Z" stroke="#FFC700" stroke-width="0.216643" stroke-miterlimit="10"/>
<path d="M32.687 446.23C32.687 446.23 39.7619 441.242 41.0726 443.802C42.3831 446.362 32.687 446.23 32.687 446.23Z" stroke="#FFC700" stroke-width="0.216643" stroke-miterlimit="10"/>
<path d="M94.5117 446.993C94.5117 446.993 96.0893 439.02 97.8733 439.02C99.6571 439.02 94.5117 446.993 94.5117 446.993Z" stroke="#FFC700" stroke-width="0.216643" stroke-miterlimit="10"/>
<path d="M94.1395 449.469C94.1395 449.469 98.2898 441.301 100.462 443.061C102.634 444.821 94.1395 449.469 94.1395 449.469Z" stroke="#FFC700" stroke-width="0.216643" stroke-miterlimit="10"/>
<path d="M40.6756 456.009C40.6756 456.009 19.099 456.566 17.5336 456.373C15.9681 456.179 14.2328 456.094 14.1115 454.395C14.1115 453.569 14.8517 448.558 14.973 446.811C15.0944 445.062 14.6575 444.153 16.854 443.594C19.0505 443.037 29.7173 441.799 31.0037 443.122C32.29 444.444 36.683 449.48 39.9352 450.063C43.1876 450.645 45.918 450.415 46.1486 452.259C46.3791 454.104 46.452 455.875 40.6756 456.009Z" fill="#14142A"/>
<path d="M102.791 456.009C102.791 456.009 81.2265 456.566 79.6489 456.373C78.0713 456.179 76.518 455.705 76.2631 454.917C76.0084 454.128 76.9792 448.558 77.0884 446.811C77.1976 445.062 76.7728 444.153 78.9694 443.594C81.1658 443.037 91.8326 441.799 93.119 443.122C94.4053 444.444 98.7983 449.48 102.063 450.063C105.327 450.645 108.033 450.415 108.264 452.259C108.494 454.104 108.567 455.875 102.791 456.009Z" fill="#14142A"/>
<path opacity="0.3" d="M59.913 330.872C56.1755 308.483 52.3043 289.612 48.8093 280.766L51.1271 268.048C51.1271 268.048 57.1341 313.434 59.913 330.872Z" fill="black"/>
<path opacity="0.2" d="M28.7054 429.908L28.4142 435.733C25.5744 435.841 19.9194 436.048 17.3832 436.17L17.2982 430.575L28.7054 429.908Z" fill="#F86700"/>
<path opacity="0.2" d="M90.0828 433.923L78.3115 434.48C78.1416 430.269 77.9717 426.167 77.8625 424.068L89.9978 425.282L90.0828 433.923Z" fill="#F86700"/>
<path d="M97.8494 421.425L96.0412 430.66L74.489 432.335L71.6614 421.425H97.8494Z" fill="#14142B"/>
<path d="M35.8766 424.433L33.9834 433.558L11.4846 434.626L11.4968 424.433H35.8766Z" fill="#14142B"/>
<path d="M105.059 198.017C100.205 200.335 86.856 202.871 86.856 202.871C86.856 202.871 78.1187 180.287 75.8129 167.448C75.0895 162.858 72.8971 158.626 69.5646 155.388C66.2324 152.149 61.9398 150.079 57.3309 149.488C51.4332 148.723 26.5317 148.977 17.7942 150.774C9.05686 152.57 7.53996 165.397 6.7633 173.103C5.98664 180.809 1.1204 209.508 5.22212 218.004C9.32383 226.498 23.7041 223.124 23.7041 223.124V226.206H74.0169L72.8034 202.665C72.8034 202.665 77.5605 215.163 84.9387 215.674C92.317 216.183 109.064 203.878 109.064 203.878L105.059 198.017ZM16.4715 211.183C16.4715 211.183 17.0297 196.524 18.0248 192.301L19.5417 200.129L21.6776 211.183H16.4715Z" fill="#FFC700"/>
<path d="M48.472 207.857L56.3843 198.282L67.4879 196.584L69.1869 206.45L60.6923 209.556C60.6923 209.556 56.6027 214.483 48.4357 213.634L48.472 207.857Z" fill="#FFDCC3"/>
<path d="M105.052 198.017L109.166 190.469L119.202 186.245L123 196.524L114.687 199.764C114.687 199.764 112.515 204.546 109.166 203.926L105.052 198.017Z" fill="#FFDCC3"/>
<path d="M48.6414 140.29C48.587 141.162 48.587 142.038 48.6414 142.911C48.7628 144.573 48.4472 147.62 51.7116 149.221C50.0248 152.862 45.9595 161.987 43.496 165.082C39.7462 162.012 30.936 149.621 30.936 149.621C30.936 149.621 37.125 142.911 32.6835 130.265C32.6835 130.265 26.446 125.704 27.6958 123.191C29.1279 120.266 33.1931 121.843 34.0547 123.081C33.1446 121.747 28.9095 107.099 34.0547 101.711C37.2585 98.3499 40.4622 98.3136 46.4327 98.0708H46.9303C50.7528 97.9373 53.5926 98.0708 53.5926 98.0708C54.8903 99.4688 56.0336 101.003 57.0025 102.646C59.7101 107.066 61.3705 112.047 61.8566 117.208C62.9853 129.234 60.6188 138.978 48.6414 140.29Z" fill="#FFDCC3"/>
<path d="M24.6258 112.321C24.6258 112.321 19.597 105.58 23.75 101.21C26.3481 98.4842 33.3354 96.703 38.1675 96.4963C38.0593 97.6379 38.1675 107.637 24.6258 112.321Z" fill="#14142B"/>
<path d="M46.4299 101.261C43.2952 100.944 40.3532 99.5995 38.0625 97.4365L37.6731 97.0271C39.6396 96.9458 41.6091 97.0866 43.5442 97.4465C44.6121 98.5968 45.5528 99.8589 46.3501 101.211L46.4299 101.261Z" fill="#14142B"/>
<path opacity="0.2" d="M48.679 142.909C46.0416 142.107 43.7018 140.541 41.9561 138.407C44.0463 139.451 46.3151 140.088 48.6427 140.288C48.6002 141.162 48.6124 142.037 48.679 142.909Z" fill="#F86700"/>
<path opacity="0.2" d="M19.553 200.129L18.0361 192.301V181.064C18.0361 181.064 19.7838 192.92 19.553 200.129Z" fill="black"/>
<path d="M458.188 156.382L444.732 150.957C444.732 150.957 426.975 183.336 421.889 184.978C414.969 187.202 400.644 193.388 392.154 194.474C391 195.83 389.115 200.049 389.292 201.582C400.699 205.394 425.768 200.334 431.14 196.346C443.362 187.298 458.188 156.382 458.188 156.382Z" fill="#FFDCC3"/>
<path d="M462.324 149.017C464.833 158.281 451.241 176.92 451.241 176.92L433.431 166.937C433.431 166.937 436.768 159.271 440.836 151.472C447.361 138.87 459.462 138.45 462.324 149.017Z" fill="#FFC700"/>
<path opacity="0.2" d="M440.495 170.925L447.508 174.858L448.742 153.331C444.659 156.464 441.783 165.905 440.495 170.925Z" fill="black"/>
<path d="M450.605 142.046C450.605 142.046 436.742 172.892 444.826 230.327H499.453C500.321 221.944 497.446 181.031 507.849 141.531C501.857 140.36 495.793 139.584 489.699 139.211C481.969 138.762 474.22 138.762 466.49 139.211C461.131 139.754 455.822 140.702 450.605 142.046Z" fill="#FFC700"/>
<path d="M464.748 417.811L455.059 421.562L463.405 443.121L473.094 439.37L464.748 417.811Z" fill="#FFDCC3"/>
<path d="M512.391 454.422H502.176L498.432 430.778H508.647L512.391 454.422Z" fill="#FFDCC3"/>
<path d="M501.472 453.241H512.948C513.147 453.243 513.339 453.314 513.491 453.443C513.642 453.572 513.743 453.75 513.775 453.947L515.254 463.023C515.285 463.25 515.267 463.481 515.199 463.701C515.133 463.922 515.02 464.124 514.868 464.297C514.717 464.47 514.529 464.607 514.321 464.701C514.111 464.794 513.883 464.841 513.652 464.84C509.651 464.772 507.725 464.528 502.679 464.528C499.573 464.528 493.183 464.853 488.869 464.853C484.555 464.853 484.271 460.621 486.048 460.228C494.025 458.505 497.118 456.158 499.776 453.879C500.245 453.467 500.847 453.241 501.472 453.241Z" fill="#14142A"/>
<path d="M463.12 441.194L473.973 438.018C474.166 437.965 474.373 437.978 474.559 438.057C474.743 438.136 474.896 438.275 474.99 438.453L479.06 446.592C479.154 446.798 479.202 447.023 479.201 447.251C479.201 447.477 479.149 447.701 479.052 447.906C478.955 448.113 478.815 448.294 478.64 448.439C478.466 448.585 478.263 448.691 478.043 448.749C474.095 449.835 471.45 450.499 466.512 451.936C463.107 452.926 459.635 454.541 456.271 455.612C453.938 456.358 448.456 456.386 445.622 456.386C441.43 456.386 440.494 451.964 442.298 451.76C446.843 451.258 447.453 451.489 449.963 450.227C454.069 448.433 457.79 445.863 460.924 442.659C461.515 441.985 462.272 441.48 463.12 441.194Z" fill="#14142A"/>
<path d="M393.858 194.419L382.626 189.712L378 202.165C382.605 202.866 387.287 202.866 391.89 202.165L393.858 194.419Z" fill="#FFDCC3"/>
<path d="M392.888 187.649L392.589 195.924L396.617 200.401L401.243 187.948L392.888 187.649Z" fill="#FFDCC3"/>
<path d="M465.485 419.643L455.766 423.395L460.071 434.543L469.789 430.791L465.485 419.643Z" fill="#FFCCA7"/>
<path d="M508.647 430.778H498.432L500.372 442.972H510.586L508.647 430.778Z" fill="#FFCCA7"/>
<path opacity="0.2" d="M443.084 214.794C443.288 217.249 443.519 219.757 443.818 222.335L484.431 209.151C490.773 207.271 496.286 203.284 500.057 197.851C500.221 194.228 500.424 190.416 500.736 186.442C500.871 184.516 501.035 182.536 501.211 180.528C501.387 178.521 501.632 176.295 501.889 174.152L443.084 214.794Z" fill="black"/>
<path d="M488.942 113.07C487.03 120.545 484.778 134.232 489.701 139.21C489.701 139.21 486.256 146.793 472.378 146.793C459.696 146.793 466.491 139.21 466.491 139.21C474.929 137.229 475.079 131.071 473.966 125.238L488.942 113.07Z" fill="#FFDCC3"/>
<path d="M482.833 118.034L473.976 125.237C474.25 126.577 474.409 127.939 474.451 129.305C477.041 131.883 482.237 125.358 482.765 122.021C483.035 120.708 483.058 119.356 482.833 118.034Z" fill="#FFCCA7"/>
<path d="M458.745 112.974C459.362 114.042 460.19 114.972 461.184 115.705C462.176 116.438 463.308 116.958 464.509 117.233C467.766 117.952 469.394 114.954 468.499 111.943C467.698 109.23 465.025 105.581 461.715 106.205C461.006 106.351 460.342 106.665 459.78 107.12C459.217 107.575 458.772 108.159 458.482 108.822C458.189 109.485 458.062 110.207 458.109 110.93C458.154 111.652 458.372 112.353 458.745 112.974Z" fill="#FFCCA7"/>
<path d="M464.128 89.0594C459.055 91.379 457.264 111.537 463.639 114.521C470.016 117.505 473.732 84.6507 464.128 89.0594Z" fill="#14142B"/>
<path d="M490.479 101.825C489.26 111.944 489.124 117.9 483.697 123.081C482.016 124.801 479.892 126.022 477.56 126.611C475.229 127.199 472.779 127.131 470.484 126.416C468.187 125.7 466.134 124.365 464.55 122.556C462.965 120.745 461.912 118.534 461.505 116.163C459.864 107.075 462.129 92.058 472.277 88.0291C474.407 87.0888 476.752 86.7359 479.067 87.0067C481.381 87.2776 483.581 88.1627 485.439 89.57C487.294 90.9773 488.742 92.8557 489.628 95.0105C490.515 97.1654 490.809 99.5181 490.479 101.825Z" fill="#FFDCC3"/>
<path d="M473.811 94.2955C481.326 92.3829 486.847 91.0806 484.867 97.3341C482.249 105.69 479.101 113.775 483.32 114.141C485.897 114.372 497.292 109.543 495.84 104.646C494.579 100.386 499.91 99.2197 500.86 97.0628C504.373 89.2493 494.322 90.2803 496.112 85.5325C497.903 80.7846 487.973 73.1339 482.548 76.9457C473.716 83.1043 458.564 83.0093 466.527 72.8763C472.238 65.6461 462.05 67.1246 462.05 67.1246C462.05 67.1246 468.208 70.7737 457.845 76.4167C446.885 82.4396 456.936 98.6227 473.811 94.2955Z" fill="#14142B"/>
<path d="M494.474 112.974C492.991 115.121 490.762 116.639 488.22 117.233C484.87 117.952 483.581 114.954 484.843 111.943C485.968 109.23 489.061 105.581 492.263 106.205C495.464 106.829 496.197 110.315 494.474 112.974Z" fill="#FFDCC3"/>
<path d="M444.822 230.327C444.822 230.327 435.652 312.395 434.933 343.54C434.201 375.933 454.812 429.72 454.812 429.72L471.09 422.938C471.09 422.938 463.298 377.873 466.012 346.064C468.887 311.377 480.769 230.38 480.769 230.38L444.822 230.327Z" fill="#14142B"/>
<path opacity="0.2" d="M467.615 252.857C460.304 268.023 465.228 298.015 469.189 315.785C470.696 303.238 472.485 289.618 474.181 277.016C474.018 257.646 472.513 242.683 467.615 252.857Z" fill="black"/>
<path d="M471.918 420.615C471.999 420.615 473.845 425.796 473.845 425.796L455.07 433.691L452.113 428.184L471.918 420.615Z" fill="#14142B"/>
<path d="M464.207 230.327C464.207 230.327 471.22 308.38 475.861 337.612C480.961 369.639 494.765 437.096 494.765 437.096H513.471C513.471 437.096 508.458 372.231 506.34 340.516C504.036 306.115 499.45 230.327 499.45 230.327H464.207Z" fill="#14142B"/>
<path d="M514.742 435.741C514.825 435.741 515.367 440.964 515.367 440.964H494.802L493.337 434.969L514.742 435.741Z" fill="#14142B"/>
<path opacity="0.2" d="M510.079 437.072C510.037 437.072 509.997 437.057 509.965 437.03C509.931 437.002 509.91 436.964 509.903 436.922C509.795 435.972 502.391 370.141 500.492 341.655C498.431 310.754 494.28 242.208 494.238 241.517C494.236 241.494 494.24 241.472 494.246 241.451C494.254 241.43 494.265 241.41 494.282 241.392C494.296 241.376 494.315 241.363 494.336 241.354C494.356 241.346 494.378 241.341 494.401 241.341C494.446 241.341 494.488 241.357 494.522 241.388C494.555 241.418 494.574 241.459 494.577 241.504C494.577 242.195 498.77 310.686 500.831 341.64C502.73 370.127 510.134 435.891 510.23 436.909C510.233 436.931 510.233 436.954 510.226 436.977C510.222 436.998 510.21 437.019 510.197 437.036C510.183 437.054 510.165 437.069 510.146 437.08C510.125 437.091 510.102 437.096 510.079 437.098V437.072Z" fill="black"/>
<path d="M513.1 154.877L498.991 151.12C498.991 151.12 485.156 185.18 480.259 187.391C473.611 190.431 456.778 200.957 449.614 205.935C449.222 207.631 449.534 212.121 450.428 213.355C462.637 211.131 486.01 202.138 490.893 197.565C502.029 187.135 513.1 154.877 513.1 154.877Z" fill="#FFDCC3"/>
<path d="M498.043 455.031C497.355 455.086 496.669 454.898 496.104 454.503C495.929 454.344 495.798 454.144 495.724 453.92C495.651 453.697 495.637 453.458 495.684 453.227C495.692 453.083 495.739 452.944 495.819 452.824C495.902 452.705 496.013 452.61 496.144 452.548C497.284 451.965 500.471 453.986 500.838 454.217C500.878 454.243 500.909 454.28 500.926 454.323C500.943 454.367 500.946 454.415 500.933 454.461C500.922 454.509 500.897 454.553 500.863 454.588C500.831 454.624 500.789 454.65 500.742 454.664C499.859 454.882 498.953 455.005 498.043 455.031ZM496.687 452.915C496.583 452.892 496.477 452.892 496.375 452.915C496.323 452.941 496.28 452.983 496.251 453.033C496.221 453.083 496.209 453.141 496.212 453.199C496.176 453.357 496.181 453.522 496.23 453.677C496.276 453.832 496.365 453.971 496.483 454.081C497.013 454.556 498.342 454.611 500.091 454.272C499.05 453.585 497.875 453.123 496.646 452.915H496.687Z" fill="#FFC700"/>
<path d="M500.674 454.666C500.639 454.677 500.602 454.677 500.566 454.666C499.549 454.096 497.636 451.859 497.921 450.718C497.964 450.537 498.066 450.378 498.211 450.261C498.357 450.145 498.536 450.082 498.722 450.08C498.904 450.056 499.088 450.072 499.264 450.126C499.44 450.179 499.602 450.271 499.739 450.394C500.865 451.356 500.933 454.314 500.933 454.462C500.939 454.508 500.931 454.553 500.909 454.591C500.886 454.632 500.852 454.663 500.81 454.679C500.765 454.688 500.718 454.684 500.674 454.666ZM498.857 450.528H498.762C498.45 450.528 498.41 450.705 498.395 450.773C498.234 451.437 499.44 453.133 500.445 453.934C500.44 452.787 500.085 451.67 499.427 450.731C499.269 450.594 499.066 450.521 498.857 450.528Z" fill="#FFC700"/>
<path d="M457.585 444.787C456.755 445.077 455.851 445.077 455.02 444.787C454.833 444.686 454.673 444.537 454.557 444.358C454.441 444.177 454.371 443.97 454.357 443.757C454.339 443.623 454.357 443.487 454.407 443.361C454.455 443.235 454.536 443.124 454.641 443.038C455.726 442.061 460.161 443.038 460.664 443.227C460.712 443.24 460.754 443.268 460.783 443.308C460.812 443.347 460.829 443.395 460.827 443.445C460.829 443.495 460.816 443.545 460.79 443.589C460.762 443.633 460.724 443.668 460.677 443.689C459.678 444.14 458.645 444.508 457.585 444.787ZM455.374 443.174C455.219 443.205 455.074 443.274 454.953 443.377C454.911 443.41 454.877 443.453 454.857 443.503C454.838 443.553 454.833 443.608 454.844 443.662C454.854 443.804 454.898 443.943 454.974 444.062C455.049 444.183 455.154 444.283 455.279 444.353C455.998 444.734 457.666 444.435 459.822 443.526C458.37 443.159 456.867 443.04 455.374 443.174Z" fill="#FFC700"/>
<path d="M460.641 443.689H460.533C459.176 443.445 456.463 441.885 456.382 440.719C456.382 440.448 456.503 440.066 457.154 439.85C457.374 439.772 457.608 439.739 457.841 439.753C458.075 439.766 458.302 439.827 458.511 439.931C459.976 440.651 460.749 443.255 460.79 443.378C460.8 443.418 460.798 443.461 460.787 443.502C460.775 443.542 460.753 443.578 460.722 443.607C460.703 443.641 460.674 443.668 460.641 443.689ZM457.425 440.257H457.29C456.87 440.406 456.87 440.583 456.87 440.637C456.87 441.342 458.837 442.631 460.207 443.066C459.892 441.976 459.223 441.021 458.307 440.352C458.036 440.213 457.721 440.179 457.425 440.257Z" fill="#FFC700"/>
<path d="M450.766 205.135L436.617 211.646L434.976 215.716L440.198 219.229C440.198 219.229 449.965 218.171 452.746 211.89L450.766 205.135Z" fill="#FFDCC3"/>
<path d="M451.36 213.586C451.044 210.868 450.146 208.249 448.728 205.909L450.966 204.226C452.649 206.923 453.723 209.957 454.114 213.113L451.36 213.586Z" fill="#263238"/>
<path d="M453.78 207.062C454.079 207.532 454.226 208.083 454.2 208.64C454.176 209.198 453.979 209.732 453.638 210.175C453.299 210.616 452.83 210.942 452.297 211.108C451.766 211.273 451.196 211.271 450.664 211.102C450.133 210.932 449.668 210.603 449.33 210.159C448.993 209.714 448.8 209.178 448.779 208.621C448.758 208.064 448.909 207.515 449.211 207.046C449.514 206.578 449.954 206.213 450.469 206.004C451.049 205.709 451.722 205.654 452.342 205.853C452.963 206.05 453.478 206.484 453.78 207.062Z" fill="#FFC700"/>
<path d="M427.049 216.91L428.936 218.809L441.632 213.382L436.612 211.646L427.049 216.91Z" fill="#FFDCC3"/>
<path d="M516.774 150.971C520.504 163.002 505.922 179.458 505.922 179.458L485.778 171.237C488.165 164.283 490.919 157.459 494.025 150.795C500.211 137.46 513.003 138.83 516.774 150.971Z" fill="#FFC700"/>
<path d="M248.5 334C316.707 334 372 278.707 372 210.5C372 142.293 316.707 87 248.5 87C180.293 87 125 142.293 125 210.5C125 278.707 180.293 334 248.5 334Z" fill="url(#paint0_linear_5_1730)"/>
<g filter="url(#filter0_d_5_1730)">
<path d="M201.738 217.18L228.457 243.898L295.252 177.102" stroke="white" stroke-width="12.1828" stroke-linecap="round" stroke-linejoin="round"/>
</g>
<path d="M381.281 307H363.076C358.616 307 355 310.616 355 315.076V333.281C355 337.741 358.616 341.357 363.076 341.357H381.281C385.741 341.357 389.357 337.741 389.357 333.281V315.076C389.357 310.616 385.741 307 381.281 307Z" fill="#FFC700"/>
<path opacity="0.3" d="M167.393 18H133.541C126.063 18 120 24.0625 120 31.541V65.3934C120 72.8719 126.063 78.9344 133.541 78.9344H167.393C174.872 78.9344 180.934 72.8719 180.934 65.3934V31.541C180.934 24.0625 174.872 18 167.393 18Z" fill="#FFC700"/>
<path d="M346.174 30.5932C339.923 23.7924 343.38 12.7762 352.394 10.7639L399.279 0.298513C408.293 -1.71381 416.105 6.78708 413.34 15.6L398.962 61.4353C396.197 70.2484 384.93 72.7636 378.679 65.9629L346.174 30.5932Z" fill="#1AB394"/>
<path d="M156.635 408.269C170.24 408.269 181.269 397.24 181.269 383.635C181.269 370.029 170.24 359 156.635 359C143.029 359 132 370.029 132 383.635C132 397.24 143.029 408.269 156.635 408.269Z" fill="#EF5772"/>
<defs>
<filter id="filter0_d_5_1730" x="124.024" y="108.938" width="248.941" height="222.223" filterUnits="userSpaceOnUse" color-interpolation-filters="sRGB">
<feFlood flood-opacity="0" result="BackgroundImageFix"/>
<feColorMatrix in="SourceAlpha" type="matrix" values="0 0 0 0 0 0 0 0 0 0 0 0 0 0 0 0 0 0 127 0" result="hardAlpha"/>
<feOffset dy="9.54964"/>
<feGaussianBlur stdDeviation="35.8112"/>
<feColorMatrix type="matrix" values="0 0 0 0 0.290196 0 0 0 0 0.227451 0 0 0 0 1 0 0 0 0.3 0"/>
<feBlend mode="normal" in2="BackgroundImageFix" result="effect1_dropShadow_5_1730"/>
<feBlend mode="normal" in="SourceGraphic" in2="effect1_dropShadow_5_1730" result="shape"/>
</filter>
<linearGradient id="paint0_linear_5_1730" x1="470.513" y1="152.002" x2="279.002" y2="747.299" gradientUnits="userSpaceOnUse">
<stop stop-color="#1AB394"/>
<stop offset="1" stop-color="#1AB394" stop-opacity="0"/>
</linearGradient>
</defs>
</svg>
