<svg id="svg" version="1.1" xmlns="http://www.w3.org/2000/svg" xmlns:xlink="http://www.w3.org/1999/xlink" width="400" height="400" viewBox="0, 0, 400,400"><g id="svgg"><path id="path0" d="M31.333 93.337 C 31.455 93.953,29.922 94.668,29.713 94.092 C 29.591 93.757,29.247 93.941,28.704 94.631 C 28.102 95.397,28.009 95.758,28.360 95.975 C 28.697 96.184,28.476 96.662,27.620 97.578 C 26.949 98.297,26.400 99.092,26.400 99.346 C 26.400 99.600,26.040 100.032,25.600 100.307 C 25.160 100.582,24.800 101.176,24.800 101.627 C 24.800 102.151,24.631 102.343,24.332 102.158 C 24.022 101.966,23.946 102.083,24.108 102.505 C 24.243 102.855,24.093 103.357,23.776 103.620 C 23.459 103.883,23.200 104.346,23.200 104.649 C 23.200 104.952,23.020 105.200,22.800 105.200 C 22.580 105.200,22.400 105.560,22.400 106.000 C 22.400 106.440,22.220 106.800,22.000 106.800 C 21.780 106.800,21.600 107.070,21.600 107.400 C 21.600 107.730,21.420 108.000,21.200 108.000 C 20.980 108.000,20.800 108.450,20.800 109.000 C 20.800 109.550,20.620 110.000,20.400 110.000 C 20.180 110.000,20.000 110.236,20.000 110.525 C 20.000 110.813,19.640 111.436,19.200 111.908 C 18.760 112.380,18.400 113.134,18.400 113.583 C 18.400 114.032,18.249 114.400,18.064 114.400 C 17.879 114.400,17.482 115.165,17.181 116.100 C 16.880 117.035,16.528 117.890,16.400 118.000 C 15.918 118.412,14.864 120.980,15.052 121.284 C 15.159 121.458,15.057 121.600,14.824 121.600 C 14.591 121.600,14.400 121.836,14.400 122.125 C 14.400 122.414,14.033 123.409,13.584 124.338 C 13.136 125.266,12.877 126.201,13.010 126.416 C 13.142 126.630,12.969 126.914,12.625 127.046 C 12.281 127.178,12.000 127.634,12.000 128.059 C 12.000 128.484,11.633 129.551,11.185 130.430 C 10.737 131.308,10.469 132.189,10.591 132.386 C 10.713 132.583,10.618 132.865,10.379 133.013 C 10.141 133.160,10.035 133.515,10.145 133.801 C 10.255 134.088,10.233 134.434,10.095 134.571 C 9.958 134.708,9.790 135.221,9.722 135.710 C 9.634 136.341,9.700 136.442,9.949 136.057 C 10.196 135.676,10.382 135.647,10.576 135.961 C 10.734 136.217,10.457 136.565,9.926 136.778 C 8.746 137.251,7.582 137.220,25.982 137.200 C 34.662 137.190,41.862 137.051,41.982 136.891 C 42.330 136.427,43.200 136.361,43.200 136.800 C 43.200 137.020,43.380 137.200,43.600 137.200 C 43.820 137.200,44.000 136.928,44.000 136.595 C 44.000 136.262,44.159 135.677,44.353 135.295 C 44.548 134.913,44.882 134.150,45.097 133.600 C 45.311 133.050,45.872 131.818,46.343 130.862 C 46.814 129.906,47.200 128.871,47.200 128.562 C 47.200 128.253,47.380 128.000,47.600 128.000 C 47.820 128.000,48.000 127.629,48.000 127.176 C 48.000 126.723,48.180 126.464,48.400 126.600 C 48.620 126.736,48.800 126.602,48.800 126.303 C 48.800 125.549,49.735 123.607,50.100 123.603 C 50.265 123.601,50.400 123.280,50.400 122.889 C 50.400 122.498,50.711 121.734,51.091 121.192 C 51.471 120.649,51.821 119.937,51.869 119.610 C 51.917 119.282,52.146 118.951,52.378 118.874 C 52.610 118.797,52.800 118.478,52.800 118.167 C 52.800 117.855,52.980 117.600,53.200 117.600 C 53.420 117.600,53.600 117.317,53.600 116.971 C 53.600 116.626,53.870 116.073,54.200 115.743 C 54.530 115.413,54.800 114.796,54.800 114.371 C 54.800 113.947,55.070 113.600,55.400 113.600 C 55.730 113.600,56.000 113.326,56.000 112.992 C 56.000 112.312,57.738 109.409,58.384 109.010 C 58.613 108.869,58.800 108.443,58.800 108.065 C 58.800 107.686,59.160 107.117,59.600 106.800 C 60.040 106.483,60.400 105.922,60.400 105.554 C 60.400 105.187,60.696 104.772,61.057 104.633 C 61.419 104.495,61.600 104.267,61.460 104.126 C 61.320 103.986,61.567 103.618,62.009 103.309 C 62.452 102.999,62.710 102.578,62.583 102.373 C 62.456 102.168,62.633 102.000,62.976 102.000 C 63.585 102.000,63.771 101.555,63.621 100.460 C 63.580 100.163,63.739 100.038,63.973 100.183 C 64.208 100.329,64.400 100.157,64.400 99.800 C 64.400 99.444,64.580 99.264,64.800 99.400 C 65.167 99.627,65.378 99.080,65.237 98.270 C 65.206 98.089,65.366 98.055,65.593 98.196 C 66.019 98.459,66.161 98.184,66.578 96.285 C 66.724 95.619,67.049 95.216,67.385 95.285 C 67.995 95.410,68.040 95.239,67.720 94.017 C 67.498 93.166,31.165 92.487,31.333 93.337 M349.689 93.104 L 331.577 93.208 331.189 94.230 C 330.701 95.512,330.704 95.600,331.229 95.600 C 331.891 95.600,332.881 96.746,332.605 97.192 C 332.457 97.431,332.634 97.485,333.045 97.327 C 333.475 97.162,333.634 97.221,333.471 97.485 C 333.228 97.879,334.051 99.172,335.694 100.975 C 336.082 101.402,336.400 101.960,336.400 102.216 C 336.400 102.472,336.940 103.246,337.600 103.937 C 338.260 104.628,338.800 105.425,338.800 105.708 C 338.800 105.991,339.160 106.483,339.600 106.800 C 340.040 107.117,340.400 107.617,340.400 107.912 C 340.400 108.206,340.580 108.336,340.800 108.200 C 341.020 108.064,341.200 108.301,341.200 108.727 C 341.200 109.153,341.474 109.730,341.810 110.008 C 342.145 110.286,342.328 110.605,342.217 110.716 C 342.106 110.828,342.329 111.207,342.714 111.559 C 343.099 111.912,343.844 113.055,344.370 114.100 C 344.896 115.145,345.472 116.000,345.650 116.000 C 345.829 116.000,345.886 116.231,345.778 116.514 C 345.669 116.797,345.952 117.427,346.406 117.914 C 346.860 118.401,347.133 118.800,347.014 118.800 C 346.786 118.800,348.830 122.853,349.232 123.200 C 349.360 123.310,349.887 124.345,350.403 125.500 C 350.920 126.655,351.451 127.600,351.584 127.600 C 351.717 127.600,352.065 128.410,352.357 129.400 C 352.649 130.390,353.048 131.200,353.244 131.200 C 353.440 131.200,353.600 131.481,353.600 131.824 C 353.600 132.167,353.778 132.337,353.995 132.203 C 354.225 132.061,354.287 132.228,354.143 132.603 C 353.974 133.045,354.167 133.319,354.757 133.473 C 355.570 133.686,355.579 133.729,354.909 134.255 C 354.421 134.638,354.378 134.779,354.772 134.706 C 355.141 134.637,355.347 134.954,355.355 135.600 C 355.361 136.150,355.600 136.840,355.887 137.132 C 356.173 137.425,356.318 137.810,356.208 137.987 C 356.098 138.164,356.255 138.514,356.556 138.763 C 356.983 139.118,357.148 139.040,357.314 138.408 C 357.430 137.964,357.405 137.600,357.259 137.600 C 357.112 137.600,356.758 137.225,356.472 136.766 C 356.011 136.029,356.035 135.950,356.675 136.090 C 357.074 136.176,357.355 136.462,357.300 136.724 C 357.224 137.086,361.042 137.200,373.224 137.200 C 383.215 137.200,389.159 137.057,389.013 136.821 C 388.884 136.612,389.143 136.512,389.589 136.598 C 390.101 136.696,390.400 136.541,390.400 136.177 C 390.400 135.860,390.209 135.600,389.976 135.600 C 389.743 135.600,389.664 135.420,389.800 135.200 C 389.936 134.980,389.877 134.800,389.668 134.800 C 389.460 134.800,389.164 134.134,389.011 133.320 C 388.859 132.507,388.492 131.496,388.197 131.075 C 387.902 130.653,387.749 130.077,387.857 129.795 C 387.966 129.512,387.862 129.162,387.627 129.017 C 387.392 128.872,387.200 128.308,387.200 127.764 C 387.200 127.220,386.950 126.679,386.644 126.562 C 386.338 126.444,386.174 126.021,386.279 125.619 C 386.384 125.218,386.274 124.769,386.035 124.622 C 385.796 124.474,385.600 124.003,385.600 123.576 C 385.600 123.149,385.420 122.800,385.200 122.800 C 384.980 122.800,384.800 122.350,384.800 121.800 C 384.800 121.250,384.620 120.800,384.400 120.800 C 384.180 120.800,384.000 120.574,384.000 120.298 C 384.000 120.022,383.280 118.312,382.400 116.498 C 381.520 114.684,380.800 113.035,380.800 112.833 C 380.800 112.632,380.665 112.407,380.500 112.333 C 380.335 112.260,379.586 110.985,378.835 109.500 C 378.084 108.015,377.357 106.800,377.220 106.800 C 377.083 106.800,376.941 106.417,376.906 105.948 C 376.871 105.480,376.502 104.715,376.086 104.248 C 375.670 103.782,375.086 102.770,374.787 102.000 C 374.489 101.230,374.136 100.510,374.002 100.400 C 373.386 99.895,372.039 97.295,372.272 97.061 C 372.416 96.918,372.323 96.800,372.067 96.800 C 371.810 96.800,371.600 96.540,371.600 96.223 C 371.600 95.853,371.300 95.704,370.764 95.807 C 370.089 95.937,370.017 95.861,370.390 95.412 C 370.929 94.763,369.828 93.982,368.800 94.285 C 368.305 94.430,368.297 94.393,368.754 94.073 C 370.058 93.162,366.975 93.005,349.689 93.104 M357.708 142.020 C 357.677 142.440,357.782 142.865,357.942 142.964 C 358.103 143.064,358.260 142.801,358.292 142.380 C 358.323 141.960,358.218 141.535,358.058 141.436 C 357.897 141.336,357.740 141.599,357.708 142.020 M168.176 150.587 C 167.172 151.347,110.522 151.507,109.115 150.755 C 108.376 150.359,108.308 150.404,108.504 151.155 C 108.626 151.620,108.579 152.000,108.400 152.000 C 108.221 152.000,108.169 152.360,108.284 152.800 C 108.399 153.240,108.312 153.600,108.091 153.600 C 107.646 153.600,107.637 154.877,108.079 155.211 C 108.233 155.327,108.389 157.352,108.427 159.711 C 108.465 162.070,108.654 164.000,108.848 164.000 C 109.042 164.000,109.200 164.821,109.200 165.824 C 109.200 167.103,109.338 167.562,109.663 167.361 C 109.980 167.165,110.055 167.346,109.900 167.937 C 109.748 168.519,109.858 168.800,110.237 168.800 C 110.934 168.800,110.981 169.472,110.300 169.702 C 109.902 169.836,109.901 169.992,110.297 170.472 C 110.570 170.803,110.705 171.192,110.597 171.337 C 110.488 171.482,110.535 171.495,110.700 171.367 C 110.865 171.238,111.000 170.923,111.000 170.667 C 111.000 170.317,117.498 170.174,136.925 170.097 C 152.997 170.033,162.763 170.137,162.619 170.369 C 162.491 170.576,162.582 170.865,162.821 171.013 C 163.059 171.160,163.141 171.576,163.003 171.936 C 162.814 172.430,162.940 172.395,163.518 171.795 C 163.939 171.358,164.128 170.939,163.937 170.865 C 163.097 170.538,162.858 169.371,163.632 169.371 C 164.498 169.371,164.659 169.829,163.900 170.135 C 163.598 170.257,163.673 170.349,164.091 170.368 C 164.471 170.386,165.101 169.910,165.491 169.311 C 165.881 168.713,166.695 167.748,167.300 167.168 C 167.905 166.588,168.400 165.818,168.400 165.457 C 168.400 165.096,168.591 164.800,168.824 164.800 C 169.057 164.800,169.135 164.619,168.998 164.397 C 168.861 164.176,169.031 163.886,169.375 163.754 C 169.719 163.622,170.000 163.287,170.000 163.008 C 170.000 162.730,170.351 161.709,170.779 160.740 C 171.661 158.748,171.763 155.033,170.955 154.363 C 170.676 154.131,170.546 153.685,170.667 153.371 C 170.798 153.028,170.638 152.800,170.266 152.800 C 169.857 152.800,169.700 152.522,169.803 151.982 C 170.144 150.216,169.452 149.623,168.176 150.587 " stroke="none" fill="#18deb6" fill-rule="evenodd"></path><path id="path1" d="M138.082 109.896 C 139.558 109.973,142.078 109.973,143.682 109.897 C 145.287 109.821,144.080 109.758,141.000 109.758 C 137.920 109.757,136.607 109.819,138.082 109.896 M32.612 181.317 C 32.441 181.712,32.413 182.147,32.551 182.284 C 32.957 182.690,33.284 182.120,33.097 181.331 C 32.932 180.633,32.910 180.632,32.612 181.317 M366.853 185.334 C 366.907 186.386,367.126 187.354,367.338 187.485 C 367.550 187.616,367.595 187.516,367.438 187.262 C 367.278 187.003,367.383 186.797,367.676 186.794 C 367.997 186.790,368.045 186.674,367.799 186.494 C 367.578 186.332,367.335 185.660,367.260 185.000 C 367.034 183.034,366.746 183.270,366.853 185.334 M0.349 188.076 C 0.015 188.884,0.204 189.896,0.656 189.723 C 0.955 189.608,1.200 189.714,1.200 189.957 C 1.200 190.201,0.930 190.400,0.600 190.400 C 0.081 190.400,0.000 191.877,0.002 201.300 C 0.003 213.720,0.364 222.470,0.861 222.162 C 1.047 222.047,1.200 223.303,1.200 224.953 C 1.200 226.603,1.380 228.064,1.600 228.200 C 1.820 228.336,2.000 229.247,2.000 230.224 C 2.000 231.201,2.163 232.000,2.363 232.000 C 2.563 232.000,2.825 232.945,2.945 234.100 C 3.331 237.804,3.675 239.599,4.042 239.826 C 4.239 239.948,4.400 240.757,4.400 241.624 C 4.400 242.491,4.580 243.200,4.800 243.200 C 5.020 243.200,5.200 243.909,5.200 244.776 C 5.200 245.643,5.380 246.464,5.600 246.600 C 5.820 246.736,6.000 247.366,6.000 248.000 C 6.000 248.634,6.180 249.264,6.400 249.400 C 6.620 249.536,6.800 249.999,6.800 250.430 C 6.800 251.400,7.716 254.400,8.012 254.400 C 8.132 254.400,8.274 254.982,8.328 255.693 C 8.383 256.405,8.587 257.147,8.782 257.342 C 8.978 257.538,9.042 257.946,8.926 258.249 C 8.810 258.552,8.944 258.800,9.224 258.800 C 9.504 258.800,9.615 258.918,9.470 259.063 C 9.325 259.208,9.406 259.566,9.648 259.858 C 9.891 260.151,9.985 260.662,9.857 260.995 C 9.730 261.328,9.762 261.600,9.930 261.600 C 10.205 261.600,11.243 264.842,11.164 265.456 C 11.146 265.596,11.323 265.829,11.556 265.973 C 11.789 266.117,12.030 266.677,12.090 267.217 C 12.151 267.758,12.427 268.440,12.704 268.732 C 12.981 269.025,13.105 269.430,12.980 269.632 C 12.855 269.835,12.973 270.000,13.243 270.000 C 13.513 270.000,13.618 270.115,13.477 270.256 C 13.336 270.397,13.470 270.982,13.775 271.556 C 14.079 272.130,14.619 273.267,14.975 274.083 C 15.330 274.899,15.786 275.667,15.986 275.791 C 16.187 275.915,16.282 276.373,16.198 276.808 C 16.115 277.244,16.203 277.600,16.395 277.600 C 16.587 277.600,16.806 278.005,16.882 278.500 C 16.957 278.995,17.253 279.351,17.539 279.290 C 17.825 279.230,17.958 279.344,17.834 279.545 C 17.532 280.034,18.580 280.872,19.024 280.497 C 19.216 280.333,19.163 280.478,18.906 280.818 C 18.300 281.618,18.419 283.200,19.085 283.200 C 19.368 283.200,19.600 283.018,19.600 282.796 C 19.600 282.527,25.665 282.426,37.600 282.496 C 52.220 282.580,55.600 282.502,55.600 282.076 C 55.600 281.788,55.435 281.655,55.234 281.779 C 55.033 281.903,54.777 281.779,54.666 281.502 C 54.505 281.103,54.457 281.103,54.432 281.500 C 54.414 281.775,54.224 282.000,54.010 282.000 C 53.783 282.000,53.745 281.622,53.919 281.100 C 54.265 280.056,54.294 278.763,53.967 278.903 C 53.622 279.052,52.400 277.716,52.400 277.190 C 52.400 276.616,51.112 274.250,50.700 274.067 C 50.535 273.993,50.400 273.509,50.400 272.990 C 50.400 272.472,50.220 271.936,50.000 271.800 C 49.780 271.664,49.600 271.203,49.600 270.776 C 49.600 270.349,49.465 269.999,49.300 269.997 C 48.941 269.993,48.000 268.056,48.000 267.320 C 48.000 267.034,47.865 266.799,47.700 266.797 C 47.299 266.793,46.400 264.819,46.400 263.944 C 46.400 263.561,46.220 263.136,46.000 263.000 C 45.780 262.864,45.600 262.393,45.600 261.953 C 45.600 261.513,45.420 261.264,45.200 261.400 C 44.980 261.536,44.800 261.277,44.800 260.824 C 44.800 260.371,44.620 260.000,44.400 260.000 C 44.180 260.000,44.000 259.449,44.000 258.776 C 44.000 258.063,43.833 257.656,43.600 257.800 C 43.374 257.940,43.200 257.612,43.200 257.047 C 43.200 256.497,43.020 255.936,42.800 255.800 C 42.580 255.664,42.400 255.203,42.400 254.776 C 42.400 254.349,42.220 254.000,42.000 254.000 C 41.780 254.000,41.600 253.471,41.600 252.824 C 41.600 252.177,41.428 251.541,41.217 251.411 C 41.007 251.281,40.931 250.925,41.048 250.620 C 41.165 250.314,40.953 249.594,40.576 249.020 C 40.200 248.445,39.999 247.868,40.130 247.737 C 40.261 247.606,40.098 246.976,39.768 246.338 C 39.437 245.699,39.268 245.014,39.390 244.816 C 39.513 244.618,39.430 244.342,39.207 244.204 C 38.983 244.066,38.800 243.549,38.800 243.056 C 38.800 242.563,38.626 241.986,38.413 241.773 C 38.201 241.561,37.984 240.817,37.931 240.121 C 37.877 239.425,37.691 238.944,37.517 239.051 C 37.343 239.159,37.200 238.517,37.200 237.624 C 37.200 236.731,37.020 236.000,36.800 236.000 C 36.580 236.000,36.400 235.190,36.400 234.200 C 36.400 233.210,36.220 232.400,36.000 232.400 C 35.780 232.400,35.600 231.605,35.600 230.633 C 35.600 229.662,35.430 228.807,35.221 228.733 C 35.013 228.660,34.800 227.745,34.747 226.700 C 34.694 225.655,34.504 224.800,34.325 224.800 C 34.146 224.800,34.000 223.846,34.000 222.680 C 34.000 221.514,33.832 220.389,33.627 220.180 C 33.421 219.971,33.214 218.450,33.166 216.800 C 33.118 215.150,32.934 213.704,32.757 213.587 C 32.580 213.470,32.410 210.770,32.380 207.587 C 32.344 203.892,32.157 201.591,31.862 201.223 C 31.505 200.777,31.514 200.715,31.900 200.947 C 32.175 201.112,32.400 201.067,32.400 200.847 C 32.400 200.627,32.200 200.324,31.956 200.173 C 31.674 199.998,31.584 199.043,31.710 197.549 C 31.840 196.016,31.759 195.200,31.478 195.200 C 31.241 195.200,31.396 194.936,31.824 194.613 C 32.261 194.282,32.382 194.020,32.100 194.013 C 31.825 194.006,31.600 193.809,31.600 193.576 C 31.600 193.343,31.825 193.288,32.100 193.453 C 32.478 193.680,32.474 193.598,32.083 193.116 C 31.680 192.618,31.675 192.442,32.058 192.314 C 32.383 192.206,32.227 191.827,31.600 191.200 C 31.078 190.678,30.845 190.185,31.083 190.106 C 31.320 190.027,31.435 189.655,31.338 189.281 C 31.179 188.672,30.519 188.610,25.080 188.698 C 8.966 188.959,0.510 188.977,0.879 188.750 C 1.147 188.585,1.135 188.407,0.843 188.226 C 0.599 188.076,0.377 188.008,0.349 188.076 M398.800 188.394 C 398.800 188.710,394.429 188.802,383.379 188.718 C 368.857 188.607,367.969 188.641,368.142 189.300 C 368.243 189.685,368.162 190.000,367.963 190.000 C 367.411 190.000,367.530 191.505,368.100 191.735 C 368.500 191.896,368.500 191.943,368.100 191.968 C 367.825 191.986,367.600 192.191,367.600 192.424 C 367.600 192.657,367.825 192.720,368.100 192.565 C 368.500 192.339,368.500 192.390,368.100 192.821 C 367.734 193.215,367.600 195.533,367.600 201.456 C 367.600 206.423,367.445 209.648,367.200 209.800 C 366.980 209.936,366.800 211.711,366.800 213.744 C 366.800 215.777,366.635 217.611,366.432 217.820 C 366.230 218.029,365.973 219.370,365.861 220.800 C 365.748 222.230,365.453 224.480,365.204 225.800 C 364.955 227.120,364.656 229.145,364.539 230.300 C 364.422 231.455,364.163 232.400,363.963 232.400 C 363.763 232.400,363.600 232.784,363.600 233.254 C 363.600 233.723,363.429 234.758,363.220 235.554 C 363.012 236.349,362.614 238.125,362.338 239.500 C 362.061 240.875,361.712 242.000,361.561 242.000 C 361.411 242.000,361.186 242.585,361.063 243.300 C 360.532 246.368,360.286 247.200,359.908 247.200 C 359.687 247.200,359.593 247.649,359.697 248.197 C 359.803 248.749,359.656 249.388,359.368 249.627 C 359.082 249.864,358.939 250.297,359.051 250.589 C 359.163 250.880,359.062 251.238,358.827 251.383 C 358.592 251.528,358.400 252.087,358.400 252.624 C 358.400 253.161,358.259 253.600,358.087 253.600 C 357.915 253.600,357.734 254.087,357.685 254.682 C 357.636 255.278,357.416 255.944,357.198 256.162 C 356.979 256.381,356.800 256.974,356.800 257.480 C 356.800 257.986,356.665 258.401,356.500 258.403 C 356.141 258.407,355.200 260.344,355.200 261.080 C 355.200 261.366,354.975 261.603,354.700 261.606 C 354.334 261.611,354.346 261.705,354.745 261.958 C 355.126 262.199,355.150 262.350,354.827 262.458 C 354.573 262.542,354.335 263.002,354.299 263.478 C 354.263 263.955,354.091 264.256,353.917 264.149 C 353.743 264.041,353.600 264.334,353.600 264.800 C 353.600 265.266,353.420 265.536,353.200 265.400 C 352.980 265.264,352.800 265.523,352.800 265.976 C 352.800 266.429,352.620 266.800,352.400 266.800 C 352.180 266.800,352.000 267.160,352.000 267.600 C 352.000 268.040,351.820 268.400,351.600 268.400 C 351.380 268.400,351.200 268.750,351.200 269.177 C 351.200 269.972,349.725 272.800,349.075 273.250 C 348.877 273.388,348.844 273.910,349.003 274.411 C 349.248 275.180,349.179 275.277,348.558 275.039 C 348.155 274.884,347.947 274.880,348.096 275.030 C 348.246 275.179,348.112 275.796,347.800 276.400 C 347.488 277.004,347.360 277.640,347.516 277.813 C 347.672 277.987,347.594 278.010,347.342 277.866 C 347.090 277.722,346.775 277.888,346.642 278.235 C 346.294 279.141,346.339 279.285,346.868 278.958 C 347.126 278.799,346.991 279.129,346.568 279.693 C 346.146 280.256,345.667 280.637,345.505 280.538 C 345.342 280.439,345.310 280.622,345.434 280.943 C 345.573 281.306,345.344 281.627,344.829 281.791 C 342.650 282.482,345.228 282.591,361.078 282.476 C 379.870 282.340,379.797 282.335,380.175 283.844 C 380.320 284.422,380.517 284.816,380.613 284.721 C 380.708 284.625,380.615 283.929,380.406 283.174 C 380.060 281.923,380.078 281.869,380.609 282.571 C 381.282 283.461,381.392 283.396,381.751 281.900 C 381.951 281.067,381.868 280.800,381.408 280.800 C 381.073 280.800,380.800 280.626,380.800 280.413 C 380.800 280.199,381.072 280.129,381.405 280.257 C 381.854 280.429,381.939 280.307,381.737 279.780 C 381.514 279.198,381.626 279.113,382.364 279.307 C 383.035 279.482,383.208 279.397,383.044 278.971 C 382.924 278.657,383.051 278.400,383.327 278.400 C 383.608 278.400,383.873 277.825,383.928 277.100 C 383.981 276.385,384.200 275.740,384.413 275.667 C 384.626 275.593,384.800 275.188,384.800 274.767 C 384.800 274.345,384.980 274.000,385.200 274.000 C 385.420 274.000,385.600 273.539,385.600 272.976 C 385.600 272.353,385.767 272.056,386.027 272.217 C 386.261 272.362,386.420 272.237,386.379 271.940 C 386.243 270.949,386.396 270.351,386.733 270.559 C 386.917 270.672,387.086 270.548,387.110 270.282 C 387.184 269.450,387.437 268.650,388.129 267.051 C 388.498 266.199,388.800 265.254,388.800 264.951 C 388.800 264.648,388.980 264.400,389.200 264.400 C 389.420 264.400,389.600 263.860,389.600 263.200 C 389.600 262.540,389.801 262.000,390.047 262.000 C 390.306 262.000,390.414 261.586,390.305 261.014 C 390.201 260.472,390.299 259.967,390.523 259.892 C 390.935 259.755,391.042 259.395,391.468 256.700 C 391.599 255.875,391.862 255.200,392.053 255.200 C 392.244 255.200,392.400 254.671,392.400 254.024 C 392.400 253.377,392.580 252.736,392.800 252.600 C 393.020 252.464,393.200 251.744,393.200 251.000 C 393.200 250.256,393.380 249.536,393.600 249.400 C 393.820 249.264,394.000 248.533,394.000 247.776 C 394.000 247.019,394.162 246.400,394.360 246.400 C 394.558 246.400,394.828 245.590,394.960 244.600 C 395.092 243.610,395.308 241.991,395.440 241.001 C 395.572 240.012,395.808 239.281,395.963 239.377 C 396.119 239.474,396.291 238.798,396.345 237.876 C 396.399 236.954,396.613 236.029,396.821 235.820 C 397.030 235.611,397.200 234.486,397.200 233.320 C 397.200 232.154,397.380 231.200,397.600 231.200 C 397.826 231.200,398.000 230.067,398.000 228.600 C 398.000 227.133,398.174 226.000,398.400 226.000 C 398.630 226.000,398.800 224.760,398.800 223.080 C 398.800 221.474,398.999 219.961,399.242 219.718 C 400.114 218.846,400.194 189.152,399.322 189.479 C 398.702 189.712,398.673 189.660,399.119 189.111 C 399.469 188.681,399.501 188.386,399.219 188.212 C 398.989 188.069,398.800 188.151,398.800 188.394 M159.708 189.500 C 159.819 189.885,160.038 190.513,160.196 190.896 C 160.466 191.553,159.361 191.587,140.641 191.496 C 120.831 191.400,120.012 191.452,121.280 192.720 C 121.653 193.093,121.650 193.200,121.267 193.200 C 120.996 193.200,120.611 192.795,120.412 192.300 C 120.187 191.739,120.041 191.635,120.025 192.025 C 120.011 192.368,120.360 193.036,120.800 193.508 C 121.240 193.980,121.600 194.644,121.600 194.983 C 121.600 195.322,121.768 195.600,121.973 195.600 C 122.178 195.600,122.460 195.959,122.599 196.398 C 122.738 196.836,123.104 197.447,123.412 197.755 C 123.720 198.063,124.023 198.548,124.086 198.833 C 124.186 199.286,125.313 200.766,126.617 202.156 C 126.846 202.400,127.268 203.172,127.554 203.871 C 127.839 204.570,128.327 205.240,128.637 205.359 C 128.946 205.478,129.200 205.810,129.200 206.098 C 129.200 206.386,129.746 207.219,130.413 207.950 C 131.080 208.680,131.665 209.485,131.713 209.739 C 131.761 209.992,132.115 210.435,132.500 210.723 C 132.885 211.010,133.200 211.415,133.200 211.623 C 133.200 211.830,133.515 212.347,133.900 212.771 C 135.228 214.234,135.600 214.768,135.600 215.207 C 135.600 215.449,135.780 215.536,136.000 215.400 C 136.220 215.264,136.400 215.412,136.400 215.728 C 136.400 216.045,137.076 217.000,137.903 217.852 C 138.729 218.703,139.407 219.490,139.410 219.600 C 139.422 220.113,140.702 221.565,140.936 221.331 C 141.081 221.186,141.200 221.285,141.200 221.552 C 141.200 221.818,141.605 222.461,142.100 222.980 C 142.595 223.498,143.720 224.772,144.600 225.811 C 145.480 226.849,146.491 227.991,146.846 228.349 C 147.201 228.707,147.702 229.405,147.960 229.900 C 148.256 230.468,148.797 230.800,149.428 230.800 C 150.278 230.800,150.368 230.911,150.031 231.541 C 149.686 232.186,149.764 232.258,150.626 232.093 C 151.474 231.931,151.545 231.809,151.116 231.252 C 150.659 230.659,150.686 230.654,151.407 231.200 C 152.332 231.900,200.245 231.921,199.813 231.221 C 199.688 231.020,200.136 231.129,200.809 231.464 C 201.530 231.824,202.311 231.948,202.715 231.767 C 203.299 231.505,203.263 231.435,202.469 231.298 C 201.846 231.190,201.614 230.942,201.765 230.547 C 201.889 230.223,201.833 230.056,201.641 230.175 C 201.448 230.294,201.070 230.125,200.800 229.800 C 200.530 229.475,200.148 229.308,199.952 229.430 C 199.755 229.551,199.487 229.370,199.355 229.028 C 199.224 228.685,198.944 228.511,198.733 228.641 C 198.213 228.963,196.755 227.597,197.071 227.085 C 197.216 226.851,197.126 226.798,196.862 226.962 C 196.608 227.119,196.400 227.046,196.400 226.800 C 196.400 226.554,196.240 226.451,196.045 226.572 C 195.850 226.693,195.468 226.523,195.196 226.196 C 194.924 225.868,194.429 225.600,194.094 225.600 C 193.760 225.600,192.971 225.060,192.340 224.400 C 191.709 223.740,190.914 223.200,190.573 223.200 C 190.232 223.200,190.064 223.020,190.200 222.800 C 190.336 222.580,190.302 222.399,190.124 222.398 C 189.946 222.397,189.225 221.857,188.522 221.198 C 187.819 220.539,187.069 220.000,186.855 220.000 C 186.641 220.000,186.407 219.862,186.333 219.693 C 186.260 219.524,185.165 218.500,183.900 217.417 C 182.635 216.334,181.600 215.212,181.600 214.924 C 181.600 214.636,181.465 214.421,181.300 214.447 C 180.598 214.558,179.886 214.381,180.114 214.152 C 180.363 213.904,179.467 212.800,179.016 212.800 C 178.884 212.800,178.196 212.144,177.488 211.341 C 176.779 210.539,175.274 208.919,174.143 207.741 C 173.012 206.564,172.155 205.600,172.239 205.600 C 172.395 205.600,171.401 204.333,170.500 203.384 C 170.225 203.094,170.000 202.753,170.000 202.625 C 170.000 202.497,169.460 201.828,168.800 201.137 C 168.140 200.446,167.600 199.627,167.600 199.317 C 167.600 199.007,167.420 198.864,167.200 199.000 C 166.980 199.136,166.800 199.006,166.800 198.712 C 166.800 198.417,166.440 197.917,166.000 197.600 C 165.560 197.283,165.200 196.693,165.200 196.288 C 165.200 195.884,165.020 195.664,164.800 195.800 C 164.580 195.936,164.400 195.756,164.400 195.400 C 164.400 195.044,164.220 194.864,164.000 195.000 C 163.780 195.136,163.600 194.967,163.600 194.624 C 163.600 194.281,163.441 194.000,163.247 194.000 C 163.052 194.000,162.793 193.616,162.670 193.147 C 162.503 192.506,162.233 192.350,161.587 192.519 C 160.744 192.740,160.741 192.727,161.463 191.903 C 161.868 191.441,161.975 191.194,161.700 191.355 C 161.386 191.539,161.200 191.407,161.200 191.000 C 161.200 190.644,161.039 190.452,160.842 190.574 C 160.412 190.840,159.903 189.681,160.222 189.164 C 160.346 188.964,160.236 188.800,159.977 188.800 C 159.718 188.800,159.597 189.115,159.708 189.500 M247.362 216.398 C 247.144 216.616,246.491 216.835,245.911 216.883 C 245.332 216.930,244.945 217.112,245.052 217.285 C 245.160 217.458,245.044 217.600,244.795 217.600 C 244.143 217.600,243.354 218.485,242.996 219.619 C 242.825 220.158,242.351 220.891,241.943 221.247 C 241.534 221.603,241.196 222.053,241.191 222.247 C 241.182 222.563,239.662 224.444,237.704 226.561 C 237.310 226.988,237.247 227.181,237.562 227.000 C 237.939 226.783,238.030 226.828,237.838 227.138 C 237.681 227.392,237.263 227.600,236.910 227.600 C 236.556 227.600,236.368 227.701,236.491 227.825 C 236.816 228.149,235.011 229.998,234.354 230.013 C 233.951 230.022,233.991 230.171,234.500 230.557 C 234.885 230.849,235.200 231.304,235.200 231.568 C 235.200 231.831,235.383 231.934,235.607 231.796 C 235.830 231.658,235.886 231.332,235.730 231.072 C 235.529 230.738,235.624 230.744,236.056 231.093 C 236.674 231.594,280.228 231.906,280.720 231.413 C 280.907 231.226,279.863 231.045,279.141 231.139 C 278.999 231.157,278.975 230.819,279.088 230.386 C 279.280 229.652,278.859 229.380,277.832 229.575 C 277.630 229.614,277.720 229.331,278.032 228.948 C 278.535 228.330,278.521 228.280,277.911 228.508 C 277.476 228.671,277.074 228.514,276.823 228.083 C 276.502 227.533,276.419 227.516,276.399 228.000 C 276.381 228.427,276.147 228.328,275.588 227.657 C 275.116 227.091,274.555 226.808,274.186 226.950 C 273.841 227.082,273.474 226.936,273.352 226.619 C 273.232 226.306,272.912 226.135,272.642 226.239 C 272.371 226.343,271.818 226.062,271.413 225.614 C 271.008 225.166,270.254 224.800,269.738 224.800 C 269.222 224.800,268.800 224.620,268.800 224.400 C 268.800 224.180,268.350 224.000,267.800 224.000 C 267.250 224.000,266.800 223.820,266.800 223.600 C 266.800 223.380,266.522 223.200,266.183 223.200 C 265.844 223.200,265.180 222.840,264.708 222.400 C 263.938 221.682,263.176 221.414,262.300 221.553 C 262.135 221.579,262.000 221.420,262.000 221.200 C 262.000 220.980,261.640 220.800,261.200 220.800 C 260.760 220.800,260.400 220.620,260.400 220.400 C 260.400 220.180,260.040 220.000,259.600 220.000 C 259.160 220.000,258.800 219.864,258.800 219.698 C 258.800 219.531,258.215 219.160,257.500 218.871 C 256.785 218.583,255.887 218.179,255.505 217.974 C 255.123 217.768,254.538 217.600,254.205 217.600 C 253.872 217.600,253.600 217.459,253.600 217.287 C 253.600 217.115,253.140 216.936,252.579 216.890 C 252.017 216.843,251.219 216.624,250.805 216.403 C 249.840 215.886,247.877 215.883,247.362 216.398 M233.398 231.204 C 233.263 231.422,233.264 231.780,233.400 232.000 C 233.536 232.220,233.386 232.400,233.066 232.400 C 232.269 232.400,231.916 233.482,232.625 233.754 C 232.958 233.882,233.200 233.737,233.200 233.410 C 233.200 233.100,233.537 232.609,233.950 232.320 C 234.566 231.888,234.606 231.708,234.171 231.302 C 233.838 230.991,233.552 230.955,233.398 231.204 M205.084 232.746 C 206.320 233.982,207.600 234.404,207.600 233.576 C 207.600 233.343,207.432 233.256,207.228 233.383 C 207.023 233.509,206.741 233.429,206.602 233.204 C 206.463 232.979,205.782 232.501,205.090 232.143 L 203.830 231.492 205.084 232.746 M151.200 233.311 C 151.200 233.372,151.560 233.730,152.000 234.107 C 152.761 234.759,152.800 234.754,152.800 233.996 C 152.800 233.467,152.532 233.200,152.000 233.200 C 151.560 233.200,151.200 233.250,151.200 233.311 M342.247 285.421 C 341.862 286.426,341.951 286.800,342.576 286.800 C 343.427 286.800,343.597 286.285,343.012 285.484 C 342.547 284.848,342.470 284.841,342.247 285.421 " stroke="none" fill="#0ac7d0" fill-rule="evenodd"></path><path id="path2" d="M388.018 130.834 C 388.264 131.293,388.562 131.571,388.682 131.452 C 389.012 131.122,388.483 130.000,387.998 130.000 C 387.703 130.000,387.709 130.256,388.018 130.834 M354.400 133.976 C 354.400 134.183,354.583 134.466,354.807 134.604 C 355.030 134.742,355.092 135.051,354.945 135.289 C 354.781 135.555,354.863 135.608,355.158 135.426 C 355.508 135.210,355.520 134.986,355.203 134.603 C 354.883 134.218,354.904 134.023,355.283 133.870 C 355.612 133.739,355.545 133.652,355.100 133.632 C 354.715 133.614,354.400 133.769,354.400 133.976 M9.067 136.171 C 8.912 136.573,8.991 137.149,9.242 137.451 C 9.597 137.878,9.554 138.000,9.049 138.000 C 8.115 138.000,8.165 139.987,9.100 140.040 C 9.540 140.065,9.429 140.182,8.800 140.356 C 8.018 140.571,7.772 140.933,7.671 142.016 C 7.601 142.777,7.376 143.571,7.171 143.780 C 6.967 143.989,6.800 144.675,6.800 145.304 C 6.800 145.933,6.665 146.364,6.500 146.263 C 6.335 146.161,6.160 146.632,6.111 147.308 C 6.062 147.985,5.837 148.723,5.611 148.949 C 5.385 149.175,5.200 150.055,5.200 150.904 C 5.200 151.831,5.040 152.348,4.800 152.200 C 4.553 152.048,4.400 152.729,4.400 153.976 C 4.400 155.089,4.220 156.000,4.000 156.000 C 3.780 156.000,3.600 156.709,3.600 157.576 C 3.600 158.443,3.420 159.264,3.200 159.400 C 2.980 159.536,2.797 160.582,2.794 161.724 C 2.789 163.212,2.678 163.630,2.400 163.200 C 2.126 162.776,2.010 163.310,2.006 165.020 C 2.003 166.351,1.834 167.611,1.631 167.820 C 1.428 168.029,1.164 169.460,1.043 171.000 C 0.923 172.540,0.679 175.420,0.501 177.400 C 0.288 179.772,0.318 181.100,0.589 181.294 C 0.858 181.487,0.840 181.590,0.536 181.594 C 0.221 181.598,0.078 182.678,0.090 184.982 C 0.100 186.842,0.218 188.351,0.354 188.335 C 1.100 188.246,1.328 188.458,0.828 188.774 C 0.063 189.259,-0.073 190.400,0.635 190.400 C 0.946 190.400,1.200 190.220,1.200 190.000 C 1.200 189.780,0.990 189.600,0.733 189.600 C 0.477 189.600,0.401 189.465,0.566 189.300 C 1.304 188.561,31.149 188.561,31.342 189.300 C 31.443 189.685,31.356 190.000,31.148 190.000 C 30.930 190.000,30.952 190.336,31.200 190.800 C 31.435 191.240,31.824 191.600,32.063 191.600 C 32.372 191.600,32.374 191.451,32.072 191.087 C 31.802 190.761,31.782 190.358,32.017 189.987 C 32.612 189.045,32.457 187.677,31.700 187.190 C 31.157 186.841,31.144 186.783,31.639 186.934 C 32.179 187.098,32.284 186.696,32.319 184.329 C 32.341 182.790,32.520 181.321,32.716 181.065 C 32.912 180.809,33.116 179.613,33.171 178.406 C 33.225 177.199,33.355 176.073,33.459 175.904 C 33.628 175.630,33.979 173.353,34.660 168.101 C 34.781 167.167,34.997 166.475,35.140 166.563 C 35.283 166.651,35.455 165.890,35.522 164.872 C 35.589 163.853,35.778 162.925,35.942 162.810 C 36.105 162.694,36.290 161.790,36.351 160.800 C 36.413 159.810,36.629 158.829,36.832 158.620 C 37.034 158.411,37.200 157.826,37.200 157.320 C 37.200 156.814,37.335 156.400,37.500 156.400 C 37.665 156.400,37.826 155.949,37.858 155.398 C 37.890 154.848,38.052 154.083,38.219 153.699 C 38.386 153.314,38.596 152.565,38.684 152.033 C 38.773 151.501,39.096 150.466,39.402 149.733 C 39.818 148.738,39.837 148.397,39.480 148.387 C 39.209 148.380,39.302 148.145,39.694 147.848 C 40.075 147.558,40.294 147.227,40.179 147.112 C 40.064 146.997,40.142 146.475,40.352 145.952 C 41.430 143.270,41.475 143.119,41.554 141.876 C 41.579 141.478,41.760 141.252,41.955 141.372 C 42.151 141.493,42.391 141.046,42.489 140.378 C 42.586 139.711,42.517 139.072,42.333 138.959 C 42.150 138.845,42.003 138.538,42.006 138.276 C 42.010 137.965,42.134 137.992,42.363 138.354 C 42.647 138.802,42.793 138.760,43.129 138.132 C 43.754 136.965,42.706 135.658,42.027 136.757 C 41.848 137.046,36.682 137.188,25.982 137.200 C 7.582 137.220,8.746 137.251,9.926 136.778 C 10.457 136.565,10.734 136.217,10.576 135.961 C 10.377 135.640,10.215 135.651,9.998 136.003 C 9.766 136.379,9.657 136.370,9.522 135.965 C 9.401 135.602,9.261 135.665,9.067 136.171 M356.472 136.766 C 356.758 137.225,357.125 137.600,357.286 137.600 C 357.448 137.600,357.405 138.062,357.190 138.626 C 356.699 139.917,356.701 140.108,357.200 139.800 C 357.420 139.664,357.600 139.844,357.600 140.200 C 357.600 140.556,357.420 140.736,357.200 140.600 C 356.980 140.464,356.800 140.543,356.800 140.776 C 356.800 141.009,357.059 141.200,357.376 141.200 C 358.251 141.200,358.533 141.956,357.934 142.694 C 357.553 143.164,357.543 143.267,357.900 143.053 C 358.210 142.867,358.419 142.989,358.450 143.376 C 358.524 144.295,358.890 145.395,359.669 147.035 C 359.887 147.494,360.022 148.124,359.969 148.435 C 359.917 148.746,360.009 149.360,360.174 149.800 C 360.917 151.777,361.191 152.672,361.357 153.665 C 361.454 154.251,361.728 155.093,361.966 155.536 C 362.203 155.979,362.288 156.627,362.154 156.976 C 362.020 157.325,362.097 157.835,362.325 158.110 C 362.553 158.385,362.798 159.147,362.870 159.805 C 362.941 160.462,363.127 161.095,363.282 161.212 C 363.436 161.329,363.608 162.094,363.663 162.912 C 363.718 163.730,363.875 164.400,364.010 164.400 C 364.146 164.400,364.299 165.318,364.350 166.440 C 364.401 167.562,364.596 168.777,364.783 169.140 C 365.266 170.079,366.045 174.685,366.127 177.089 C 366.165 178.209,366.332 179.042,366.498 178.939 C 366.749 178.784,367.011 181.472,366.846 182.504 C 366.819 182.671,366.956 183.512,367.149 184.373 C 367.367 185.339,367.354 186.086,367.116 186.324 C 366.868 186.572,366.886 186.806,367.165 186.978 C 367.404 187.126,367.600 187.867,367.600 188.624 C 367.600 189.381,367.763 190.000,367.963 190.000 C 368.162 190.000,368.243 189.685,368.142 189.300 C 367.969 188.641,368.857 188.607,383.379 188.718 C 394.429 188.802,398.800 188.710,398.800 188.394 C 398.800 188.151,398.989 188.069,399.219 188.212 C 399.506 188.389,399.491 188.650,399.170 189.036 C 398.806 189.475,398.824 189.601,399.251 189.606 C 399.685 189.611,399.674 189.701,399.200 190.037 C 398.667 190.414,398.667 190.443,399.200 190.297 C 399.627 190.181,399.788 189.624,399.757 188.367 C 399.734 187.395,399.681 184.575,399.639 182.100 C 399.586 178.902,399.425 177.598,399.082 177.594 C 398.783 177.590,398.828 177.438,399.200 177.194 C 399.638 176.907,399.673 176.718,399.332 176.496 C 399.072 176.327,398.824 175.040,398.773 173.596 C 398.723 172.168,398.539 170.815,398.365 170.588 C 398.191 170.362,398.008 169.057,397.959 167.688 C 397.909 166.320,397.718 165.200,397.534 165.200 C 397.350 165.200,397.200 164.336,397.200 163.280 C 397.200 162.224,397.023 161.183,396.807 160.967 C 396.590 160.750,396.381 159.724,396.342 158.687 C 396.302 157.649,396.160 156.800,396.026 156.800 C 395.732 156.800,394.800 152.931,394.800 151.712 C 394.800 151.236,394.620 150.736,394.400 150.600 C 394.180 150.464,394.000 149.633,394.000 148.753 C 394.000 147.788,393.841 147.251,393.600 147.400 C 393.367 147.544,393.200 147.137,393.200 146.424 C 393.200 145.751,393.020 145.200,392.800 145.200 C 392.580 145.200,392.400 144.700,392.400 144.089 C 392.400 143.478,392.166 142.623,391.880 142.189 C 391.594 141.755,391.389 141.000,391.425 140.510 C 391.461 140.021,391.353 139.705,391.187 139.808 C 391.020 139.911,390.781 139.726,390.654 139.398 C 390.528 139.069,390.579 138.800,390.768 138.800 C 391.330 138.800,391.048 137.431,390.400 137.016 C 389.588 136.495,388.743 136.385,389.022 136.835 C 389.156 137.053,382.776 137.200,373.224 137.200 C 361.042 137.200,357.224 137.086,357.300 136.724 C 357.355 136.462,357.074 136.176,356.675 136.090 C 356.035 135.950,356.011 136.029,356.472 136.766 M163.246 170.086 C 163.456 170.479,163.847 170.797,164.114 170.794 C 164.419 170.790,164.377 170.644,164.000 170.400 C 163.600 170.142,163.567 170.010,163.900 170.006 C 164.175 170.003,164.400 169.859,164.400 169.686 C 164.400 169.513,164.054 169.371,163.632 169.371 C 163.018 169.371,162.941 169.515,163.246 170.086 M110.533 170.593 C 110.533 170.908,110.728 171.048,110.967 170.906 C 111.205 170.763,111.165 170.936,110.878 171.291 C 110.440 171.831,110.466 171.997,111.040 172.318 C 111.485 172.568,111.629 172.947,111.452 173.408 C 111.288 173.836,111.447 174.410,111.855 174.860 C 112.225 175.270,112.427 175.706,112.304 175.829 C 112.014 176.119,113.266 179.640,114.556 182.169 C 115.109 183.253,115.469 184.288,115.357 184.469 C 115.245 184.651,115.343 184.800,115.576 184.800 C 115.809 184.800,116.000 185.160,116.000 185.600 C 116.000 186.040,116.147 186.400,116.326 186.400 C 116.505 186.400,116.952 187.030,117.319 187.800 C 117.687 188.570,118.178 189.200,118.411 189.200 C 118.644 189.200,118.782 189.515,118.718 189.900 C 118.634 190.399,118.856 190.591,119.492 190.569 C 120.189 190.545,120.287 190.654,119.943 191.069 C 119.617 191.462,119.631 191.600,119.998 191.600 C 120.278 191.600,120.412 191.913,120.305 192.319 C 120.173 192.824,120.356 193.057,120.918 193.099 C 121.522 193.144,121.606 193.046,121.260 192.700 C 120.015 191.455,120.891 191.400,140.559 191.496 C 158.052 191.581,160.345 191.522,160.554 190.975 C 160.702 190.590,160.627 190.460,160.353 190.629 C 160.057 190.812,160.002 190.591,160.183 189.950 C 160.391 189.217,160.356 189.137,160.032 189.600 C 159.695 190.082,159.611 189.983,159.606 189.100 C 159.603 188.495,159.420 188.000,159.200 188.000 C 158.980 188.000,158.800 187.730,158.800 187.400 C 158.800 187.070,158.620 186.800,158.400 186.800 C 158.180 186.800,158.000 186.530,158.000 186.200 C 158.000 185.870,157.826 185.600,157.613 185.600 C 157.399 185.600,157.320 185.353,157.436 185.052 C 157.551 184.750,157.354 184.391,156.998 184.254 C 156.641 184.118,156.457 183.832,156.588 183.619 C 156.720 183.406,156.615 182.892,156.355 182.477 C 156.053 181.994,156.000 181.302,156.207 180.560 C 156.385 179.922,156.502 179.265,156.466 179.100 C 156.430 178.935,156.580 178.800,156.800 178.800 C 157.020 178.800,157.200 178.602,157.200 178.360 C 157.200 178.119,157.740 177.417,158.400 176.800 C 159.060 176.183,159.600 175.451,159.600 175.173 C 159.600 174.894,159.712 174.779,159.849 174.915 C 159.985 175.052,160.774 174.460,161.600 173.600 C 162.426 172.740,163.239 172.163,163.406 172.318 C 163.572 172.473,163.466 172.150,163.169 171.600 C 162.873 171.050,162.669 170.463,162.717 170.295 C 162.765 170.127,151.043 169.997,136.668 170.006 C 114.295 170.020,110.533 170.104,110.533 170.593 M31.710 193.200 C 31.677 193.640,31.780 194.000,31.940 194.000 C 32.099 194.000,32.257 193.640,32.290 193.200 C 32.323 192.760,32.220 192.400,32.060 192.400 C 31.901 192.400,31.743 192.760,31.710 193.200 M31.600 194.804 C 31.189 195.067,31.160 195.190,31.508 195.194 C 31.839 195.198,31.948 195.571,31.822 196.265 C 31.689 197.004,31.757 197.203,32.046 196.914 C 32.728 196.232,32.328 194.339,31.600 194.804 " stroke="none" fill="#12d2c1" fill-rule="evenodd"></path><path id="path3" d="M181.589 0.134 C 181.473 0.256,179.718 0.389,177.689 0.431 C 175.660 0.472,174.000 0.661,174.000 0.853 C 174.000 1.044,172.740 1.200,171.200 1.200 C 169.600 1.200,168.400 1.371,168.400 1.600 C 168.400 1.820,167.410 2.000,166.200 2.000 C 164.990 2.000,164.000 2.180,164.000 2.400 C 164.000 2.620,163.100 2.800,162.000 2.800 C 160.900 2.800,160.000 2.980,160.000 3.200 C 160.000 3.420,159.100 3.600,158.000 3.600 C 156.900 3.600,156.000 3.780,156.000 4.000 C 156.000 4.220,155.280 4.400,154.400 4.400 C 153.520 4.400,152.800 4.580,152.800 4.800 C 152.800 5.020,152.080 5.200,151.200 5.200 C 150.320 5.200,149.600 5.380,149.600 5.600 C 149.600 5.820,148.880 6.000,148.000 6.000 C 147.120 6.000,146.400 6.180,146.400 6.400 C 146.400 6.620,145.770 6.800,145.000 6.800 C 144.230 6.800,143.600 6.980,143.600 7.200 C 143.600 7.420,143.060 7.600,142.400 7.600 C 141.740 7.600,141.200 7.760,141.200 7.956 C 141.200 8.152,140.615 8.402,139.900 8.512 C 138.215 8.770,137.389 8.988,135.200 9.757 C 134.210 10.104,132.995 10.391,132.500 10.394 C 132.005 10.397,131.600 10.559,131.600 10.753 C 131.600 10.948,131.195 11.196,130.700 11.306 C 129.461 11.580,125.845 12.947,125.600 13.235 C 125.490 13.364,124.545 13.718,123.500 14.022 C 122.455 14.326,121.600 14.715,121.600 14.887 C 121.600 15.059,121.240 15.200,120.800 15.200 C 120.360 15.200,120.000 15.380,120.000 15.600 C 120.000 15.820,119.460 16.000,118.800 16.000 C 118.140 16.000,117.599 16.135,117.597 16.300 C 117.593 16.659,115.656 17.600,114.920 17.600 C 114.634 17.600,114.400 17.780,114.400 18.000 C 114.400 18.220,114.040 18.400,113.600 18.400 C 113.160 18.400,112.799 18.535,112.799 18.700 C 112.798 18.865,111.808 19.450,110.600 20.000 C 109.392 20.550,108.402 21.135,108.401 21.300 C 108.401 21.465,108.040 21.600,107.600 21.600 C 107.160 21.600,106.800 21.780,106.800 22.000 C 106.800 22.220,106.440 22.400,106.000 22.400 C 105.560 22.400,105.200 22.580,105.200 22.800 C 105.200 23.020,104.840 23.200,104.400 23.200 C 103.960 23.200,103.600 23.380,103.600 23.600 C 103.600 23.820,103.240 24.000,102.800 24.000 C 102.360 24.000,102.000 24.180,102.000 24.400 C 102.000 24.620,101.662 24.800,101.249 24.800 C 100.836 24.800,100.274 25.070,100.000 25.400 C 99.726 25.730,99.332 26.000,99.123 26.000 C 98.915 26.000,97.959 26.540,97.000 27.200 C 96.041 27.860,95.063 28.400,94.828 28.400 C 94.593 28.400,94.400 28.558,94.400 28.751 C 94.400 28.945,93.860 29.327,93.200 29.600 C 92.540 29.873,92.000 30.255,92.000 30.449 C 92.000 30.642,91.764 30.800,91.475 30.800 C 91.187 30.800,90.602 31.115,90.175 31.500 C 89.749 31.885,88.905 32.455,88.300 32.768 C 87.695 33.080,87.200 33.485,87.200 33.668 C 87.200 33.850,86.964 34.000,86.675 34.000 C 86.387 34.000,85.764 34.360,85.292 34.800 C 84.820 35.240,84.291 35.601,84.117 35.602 C 83.943 35.603,83.225 36.143,82.522 36.802 C 81.819 37.461,81.099 38.001,80.922 38.002 C 80.745 38.003,80.025 38.543,79.322 39.202 C 78.619 39.861,77.875 40.400,77.669 40.400 C 77.463 40.400,76.574 41.120,75.694 42.000 C 74.814 42.880,73.938 43.600,73.747 43.600 C 73.556 43.600,72.653 44.275,71.740 45.100 C 70.828 45.925,69.684 46.870,69.199 47.200 C 68.713 47.530,67.166 48.925,65.761 50.300 C 64.356 51.675,63.070 52.802,62.903 52.805 C 62.736 52.808,60.260 55.254,57.400 58.241 C 54.540 61.228,50.805 65.110,49.100 66.867 C 47.395 68.625,46.000 70.202,46.000 70.370 C 46.000 70.678,45.352 71.484,43.170 73.889 C 42.526 74.598,42.000 75.333,42.000 75.523 C 42.000 75.712,41.465 76.392,40.811 77.033 C 40.157 77.675,39.617 78.333,39.611 78.495 C 39.600 78.782,38.725 79.936,37.700 81.016 C 37.425 81.306,37.200 81.696,37.200 81.883 C 37.200 82.070,36.840 82.483,36.400 82.800 C 35.960 83.117,35.600 83.613,35.600 83.902 C 35.600 84.191,35.067 84.948,34.415 85.585 C 33.652 86.331,33.403 86.814,33.715 86.940 C 34.070 87.084,34.059 87.145,33.676 87.168 C 33.388 87.186,33.264 87.380,33.400 87.600 C 33.536 87.820,33.367 88.000,33.024 88.000 C 32.681 88.000,32.400 88.294,32.400 88.653 C 32.400 89.012,32.022 89.634,31.560 90.034 C 31.099 90.435,30.798 90.995,30.893 91.278 C 30.987 91.562,30.704 91.975,30.264 92.197 C 29.286 92.689,29.092 93.210,29.595 94.000 C 29.997 94.632,31.478 94.067,31.333 93.337 C 31.296 93.152,39.441 93.049,49.433 93.108 C 65.329 93.202,67.600 93.291,67.600 93.821 C 67.600 94.661,68.674 94.990,69.290 94.337 C 70.646 92.901,70.814 92.489,70.444 91.515 C 70.165 90.781,70.203 90.533,70.597 90.533 C 70.887 90.533,71.032 90.773,70.919 91.067 C 70.807 91.360,70.886 91.600,71.095 91.600 C 71.695 91.600,72.835 90.168,72.501 89.834 C 72.335 89.669,72.380 89.593,72.600 89.667 C 72.820 89.740,73.405 89.395,73.900 88.900 C 74.395 88.405,74.710 88.000,74.600 88.000 C 74.490 88.000,75.120 87.280,76.000 86.400 C 76.880 85.520,77.600 84.714,77.600 84.610 C 77.600 84.325,83.465 78.400,83.747 78.400 C 84.082 78.400,85.360 77.332,87.574 75.200 C 88.602 74.210,90.063 72.922,90.822 72.338 C 91.580 71.753,92.875 70.628,93.701 69.838 C 94.526 69.047,95.381 68.400,95.601 68.400 C 95.820 68.400,96.000 68.220,96.000 68.000 C 96.000 67.780,96.198 67.600,96.440 67.600 C 96.681 67.600,97.383 67.060,98.000 66.400 C 98.617 65.740,99.369 65.200,99.672 65.200 C 99.975 65.200,100.483 64.840,100.800 64.400 C 101.117 63.960,101.707 63.600,102.112 63.600 C 102.516 63.600,102.736 63.420,102.600 63.200 C 102.464 62.980,102.594 62.800,102.888 62.800 C 103.183 62.800,103.683 62.440,104.000 62.000 C 104.317 61.560,104.831 61.200,105.142 61.200 C 105.453 61.200,106.133 60.705,106.653 60.100 C 107.173 59.495,107.602 59.180,107.606 59.400 C 107.609 59.620,107.746 59.589,107.910 59.332 C 108.074 59.075,108.469 58.805,108.788 58.732 C 109.107 58.659,109.556 58.462,109.784 58.294 C 111.420 57.092,113.323 56.000,113.784 56.000 C 114.086 56.000,114.393 55.865,114.467 55.700 C 114.634 55.324,116.764 54.025,117.700 53.729 C 118.085 53.607,118.400 53.348,118.400 53.153 C 118.400 52.959,118.678 52.800,119.017 52.800 C 119.356 52.800,120.020 52.440,120.492 52.000 C 120.964 51.560,121.677 51.200,122.075 51.200 C 122.474 51.200,122.800 51.020,122.800 50.800 C 122.800 50.580,123.160 50.400,123.600 50.400 C 124.040 50.400,124.400 50.220,124.400 50.000 C 124.400 49.780,124.760 49.600,125.200 49.600 C 125.640 49.600,126.000 49.420,126.000 49.200 C 126.000 48.980,126.360 48.800,126.800 48.800 C 127.240 48.800,127.600 48.620,127.600 48.400 C 127.600 48.180,127.960 48.000,128.400 48.000 C 128.840 48.000,129.200 47.820,129.200 47.600 C 129.200 47.380,129.560 47.200,130.000 47.200 C 130.440 47.200,130.800 47.053,130.800 46.872 C 130.800 46.692,131.692 46.302,132.782 46.005 C 133.872 45.708,134.671 45.316,134.558 45.133 C 134.445 44.950,134.813 44.800,135.376 44.800 C 135.939 44.800,136.400 44.620,136.400 44.400 C 136.400 44.180,136.839 44.000,137.376 44.000 C 137.913 44.000,138.464 43.820,138.600 43.600 C 138.736 43.380,139.197 43.200,139.624 43.200 C 140.051 43.200,140.400 43.020,140.400 42.800 C 140.400 42.580,140.850 42.400,141.400 42.400 C 141.950 42.400,142.400 42.220,142.400 42.000 C 142.400 41.780,142.844 41.600,143.386 41.600 C 144.360 41.600,147.449 40.711,149.000 39.985 C 150.041 39.497,154.236 38.356,155.904 38.107 C 156.621 37.999,157.306 37.751,157.427 37.556 C 157.548 37.360,158.267 37.200,159.024 37.200 C 159.781 37.200,160.400 37.020,160.400 36.800 C 160.400 36.580,161.199 36.400,162.176 36.400 C 163.153 36.400,164.064 36.220,164.200 36.000 C 164.336 35.780,165.056 35.600,165.800 35.600 C 166.544 35.600,167.264 35.420,167.400 35.200 C 167.536 34.980,168.526 34.800,169.600 34.800 C 170.674 34.800,171.664 34.620,171.800 34.400 C 171.936 34.180,173.016 34.000,174.200 34.000 C 175.384 34.000,176.464 33.820,176.600 33.600 C 176.736 33.380,178.266 33.200,180.000 33.200 C 181.734 33.200,183.264 33.020,183.400 32.800 C 183.549 32.558,186.396 32.400,190.600 32.400 C 194.804 32.400,197.651 32.242,197.800 32.000 C 197.936 31.780,198.836 31.600,199.800 31.600 C 200.764 31.600,201.664 31.780,201.800 32.000 C 201.950 32.242,204.804 32.400,209.024 32.400 C 213.408 32.400,216.000 32.549,216.000 32.800 C 216.000 33.035,217.400 33.200,219.400 33.200 C 221.400 33.200,222.800 33.365,222.800 33.600 C 222.800 33.822,223.859 34.000,225.176 34.000 C 226.483 34.000,227.664 34.180,227.800 34.400 C 227.936 34.620,228.836 34.800,229.800 34.800 C 230.764 34.800,231.664 34.980,231.800 35.200 C 231.936 35.420,232.847 35.600,233.824 35.600 C 234.801 35.600,235.600 35.780,235.600 36.000 C 235.600 36.220,236.309 36.400,237.176 36.400 C 238.043 36.400,238.864 36.580,239.000 36.800 C 239.136 37.020,239.957 37.200,240.824 37.200 C 241.691 37.200,242.400 37.380,242.400 37.600 C 242.400 37.820,243.030 38.000,243.800 38.000 C 244.570 38.000,245.200 38.180,245.200 38.400 C 245.200 38.620,245.830 38.800,246.600 38.800 C 247.370 38.800,248.000 38.980,248.000 39.200 C 248.000 39.420,248.366 39.600,248.814 39.600 C 249.686 39.600,255.741 41.423,256.895 42.033 C 257.277 42.235,257.952 42.400,258.395 42.400 C 258.838 42.400,259.200 42.580,259.200 42.800 C 259.200 43.020,259.650 43.200,260.200 43.200 C 260.750 43.200,261.200 43.380,261.200 43.600 C 261.200 43.820,261.650 44.000,262.200 44.000 C 262.750 44.000,263.200 44.180,263.200 44.400 C 263.200 44.620,263.650 44.800,264.200 44.800 C 264.750 44.800,265.200 44.980,265.200 45.200 C 265.200 45.420,265.560 45.600,266.000 45.600 C 266.440 45.600,266.800 45.780,266.800 46.000 C 266.800 46.220,267.160 46.400,267.600 46.400 C 268.040 46.400,268.400 46.580,268.400 46.800 C 268.400 47.020,268.839 47.200,269.376 47.200 C 269.913 47.200,270.464 47.380,270.600 47.600 C 270.736 47.820,271.197 48.000,271.624 48.000 C 272.051 48.000,272.400 48.180,272.400 48.400 C 272.400 48.620,272.760 48.800,273.200 48.800 C 273.640 48.800,274.000 48.980,274.000 49.200 C 274.000 49.420,274.360 49.600,274.800 49.600 C 275.240 49.600,275.603 49.735,275.606 49.900 C 275.610 50.065,276.510 50.640,277.606 51.179 C 278.703 51.717,279.600 52.302,279.600 52.479 C 279.600 52.655,279.870 52.800,280.200 52.800 C 280.530 52.800,280.800 52.980,280.800 53.200 C 280.800 53.420,281.160 53.600,281.600 53.600 C 282.040 53.600,282.400 53.780,282.400 54.000 C 282.400 54.220,282.760 54.400,283.200 54.400 C 283.640 54.400,284.000 54.580,284.000 54.800 C 284.000 55.020,284.236 55.200,284.525 55.200 C 284.813 55.200,285.405 55.515,285.840 55.900 C 286.275 56.285,286.893 56.659,287.212 56.732 C 287.531 56.805,287.926 57.075,288.090 57.332 C 288.254 57.589,288.391 57.652,288.394 57.471 C 288.397 57.290,288.874 57.515,289.454 57.971 C 290.034 58.427,290.754 58.800,291.054 58.800 C 291.354 58.800,291.600 58.980,291.600 59.200 C 291.600 59.420,291.881 59.600,292.224 59.600 C 292.567 59.600,292.753 59.753,292.637 59.940 C 292.522 60.127,292.916 60.532,293.514 60.840 C 294.111 61.148,294.949 61.715,295.375 62.100 C 295.802 62.485,296.299 62.800,296.479 62.800 C 296.660 62.800,297.372 63.340,298.063 64.000 C 298.754 64.660,299.490 65.200,299.699 65.200 C 299.908 65.200,300.583 65.740,301.200 66.400 C 301.817 67.060,302.533 67.600,302.792 67.600 C 303.051 67.600,303.947 68.312,304.783 69.182 C 305.619 70.052,306.388 70.679,306.491 70.575 C 306.595 70.471,307.665 71.348,308.868 72.523 C 310.072 73.698,311.370 74.780,311.754 74.927 C 312.137 75.074,312.331 75.388,312.185 75.624 C 312.025 75.883,312.210 76.003,312.651 75.927 C 313.067 75.855,313.386 76.040,313.391 76.356 C 313.396 76.662,313.755 77.112,314.189 77.356 C 315.061 77.847,320.800 83.465,320.800 83.829 C 320.800 84.186,321.729 85.027,322.693 85.543 C 323.275 85.854,323.485 86.235,323.317 86.672 C 323.159 87.083,323.224 87.232,323.488 87.069 C 323.722 86.925,324.181 87.210,324.510 87.703 C 325.608 89.351,326.678 90.388,326.974 90.093 C 327.135 89.932,327.208 89.980,327.136 90.200 C 326.931 90.830,328.288 92.516,328.763 92.223 C 329.019 92.064,329.102 92.191,328.968 92.538 C 328.764 93.072,330.186 94.800,330.829 94.800 C 330.982 94.800,331.200 94.444,331.314 94.008 C 331.516 93.235,331.965 93.213,349.789 93.108 C 367.152 93.005,370.066 93.154,368.748 94.077 C 368.301 94.390,368.311 94.428,368.800 94.285 C 369.130 94.187,369.718 94.271,370.106 94.471 C 371.021 94.942,370.883 94.062,369.900 93.153 C 369.515 92.797,369.200 92.233,369.200 91.900 C 369.200 91.566,368.840 91.199,368.400 91.084 C 367.859 90.943,367.600 90.538,367.600 89.837 C 367.600 89.267,367.465 88.829,367.300 88.864 C 366.505 89.032,365.703 88.291,365.894 87.564 C 366.022 87.072,365.782 86.505,365.249 86.043 C 364.782 85.638,364.400 85.129,364.400 84.912 C 364.400 84.696,363.860 83.954,363.200 83.263 C 362.540 82.572,362.000 81.866,362.000 81.693 C 362.000 81.519,361.685 81.080,361.300 80.717 C 360.274 79.749,359.600 78.877,359.598 78.517 C 359.597 78.343,359.080 77.649,358.449 76.977 C 357.819 76.304,357.177 75.359,357.024 74.877 C 356.871 74.394,356.458 74.000,356.106 74.000 C 355.755 74.000,355.560 73.907,355.674 73.793 C 355.788 73.679,355.269 72.937,354.522 72.145 C 353.774 71.352,353.242 70.625,353.338 70.528 C 353.435 70.432,352.453 69.289,351.157 67.989 C 349.861 66.688,348.800 65.505,348.800 65.359 C 348.800 65.213,348.485 64.802,348.100 64.446 C 347.715 64.089,346.545 62.861,345.500 61.716 C 344.455 60.571,343.600 59.715,343.600 59.813 C 343.600 59.912,343.060 59.428,342.400 58.737 C 341.740 58.046,341.200 57.328,341.200 57.141 C 341.200 56.953,340.900 56.800,340.533 56.800 C 340.167 56.800,339.968 56.699,340.091 56.576 C 340.333 56.334,339.328 55.246,337.249 53.500 C 336.528 52.895,336.068 52.400,336.225 52.400 C 336.383 52.400,335.891 51.979,335.132 51.464 C 334.374 50.949,332.684 49.509,331.378 48.264 C 330.072 47.019,328.889 46.000,328.749 46.000 C 328.609 46.000,327.618 45.192,326.547 44.204 C 325.476 43.217,324.485 42.407,324.344 42.404 C 324.203 42.402,323.393 41.774,322.544 41.009 C 321.695 40.244,320.847 39.614,320.660 39.609 C 320.474 39.604,319.817 39.060,319.200 38.400 C 318.583 37.740,317.831 37.200,317.528 37.200 C 317.225 37.200,316.717 36.840,316.400 36.400 C 316.083 35.960,315.638 35.600,315.412 35.599 C 315.185 35.599,314.370 35.059,313.600 34.400 C 312.830 33.741,311.975 33.201,311.700 33.201 C 311.425 33.200,311.200 33.032,311.200 32.827 C 311.200 32.622,310.862 32.347,310.449 32.216 C 310.036 32.084,309.194 31.544,308.578 31.015 C 307.962 30.486,306.680 29.653,305.729 29.164 C 304.778 28.674,304.000 28.156,304.000 28.012 C 304.000 27.867,303.370 27.502,302.600 27.200 C 301.830 26.898,301.200 26.504,301.200 26.325 C 301.200 26.146,301.065 26.019,300.900 26.043 C 300.296 26.130,298.800 25.497,298.800 25.153 C 298.800 24.959,298.440 24.800,298.000 24.800 C 297.560 24.800,297.200 24.620,297.200 24.400 C 297.200 24.180,296.840 24.000,296.400 24.000 C 295.960 24.000,295.600 23.820,295.600 23.600 C 295.600 23.380,295.280 23.200,294.888 23.200 C 294.497 23.200,293.917 22.840,293.600 22.400 C 293.283 21.960,292.703 21.600,292.312 21.600 C 291.920 21.600,291.600 21.420,291.600 21.200 C 291.600 20.980,291.255 20.800,290.833 20.800 C 290.412 20.800,290.007 20.657,289.933 20.481 C 289.780 20.115,286.213 18.400,285.604 18.400 C 285.382 18.400,285.200 18.220,285.200 18.000 C 285.200 17.780,284.750 17.600,284.200 17.600 C 283.650 17.600,283.200 17.420,283.200 17.200 C 283.200 16.980,282.840 16.800,282.400 16.800 C 281.960 16.800,281.600 16.620,281.600 16.400 C 281.600 16.180,281.240 16.000,280.800 16.000 C 280.360 16.000,280.000 15.853,280.000 15.672 C 280.000 15.492,279.100 15.100,278.000 14.800 C 276.900 14.500,276.000 14.108,276.000 13.928 C 276.000 13.747,275.728 13.600,275.395 13.600 C 275.062 13.600,274.387 13.392,273.895 13.138 C 271.986 12.151,271.587 12.000,270.885 12.000 C 270.486 12.000,269.989 11.833,269.780 11.629 C 269.238 11.101,260.825 8.400,259.721 8.400 C 259.215 8.400,258.800 8.220,258.800 8.000 C 258.800 7.780,258.170 7.600,257.400 7.600 C 256.630 7.600,256.000 7.420,256.000 7.200 C 256.000 6.980,255.471 6.800,254.824 6.800 C 254.177 6.800,253.536 6.620,253.400 6.400 C 253.264 6.180,252.544 6.000,251.800 6.000 C 251.056 6.000,250.336 5.820,250.200 5.600 C 250.064 5.380,249.344 5.200,248.600 5.200 C 247.856 5.200,247.136 5.020,247.000 4.800 C 246.864 4.580,245.953 4.400,244.976 4.400 C 243.999 4.400,243.200 4.220,243.200 4.000 C 243.200 3.780,242.480 3.600,241.600 3.600 C 240.720 3.600,240.000 3.420,240.000 3.200 C 240.000 2.980,239.010 2.800,237.800 2.800 C 236.590 2.800,235.600 2.620,235.600 2.400 C 235.600 2.178,234.533 2.000,233.200 2.000 C 231.867 2.000,230.800 1.822,230.800 1.600 C 230.800 1.372,229.611 1.200,228.033 1.200 C 226.232 1.200,225.211 1.032,225.106 0.719 C 224.941 0.223,182.053 -0.353,181.589 0.134 M66.643 95.833 C 66.129 97.171,66.338 98.119,67.000 97.457 C 67.650 96.807,67.823 95.200,67.243 95.200 C 67.046 95.200,66.776 95.485,66.643 95.833 M27.342 96.714 C 27.196 97.311,26.880 97.932,26.638 98.094 C 26.330 98.301,26.340 98.390,26.673 98.394 C 27.523 98.405,28.897 96.123,28.202 95.856 C 27.796 95.700,27.524 95.972,27.342 96.714 M331.600 96.143 C 331.600 96.457,331.881 96.822,332.225 96.954 C 332.569 97.086,332.768 97.331,332.667 97.497 C 332.566 97.664,332.724 98.021,333.017 98.292 C 333.445 98.688,333.539 98.648,333.497 98.088 C 333.430 97.199,331.600 95.322,331.600 96.143 M372.364 97.800 C 373.058 99.157,373.587 99.822,373.594 99.344 C 373.597 99.094,373.230 98.464,372.777 97.944 C 372.131 97.202,372.042 97.171,372.364 97.800 M25.779 99.166 C 25.903 99.367,25.779 99.623,25.502 99.734 C 25.199 99.856,25.278 99.949,25.700 99.968 C 26.085 99.986,26.400 99.730,26.400 99.400 C 26.400 99.070,26.209 98.800,25.976 98.800 C 25.743 98.800,25.655 98.965,25.779 99.166 M334.800 100.629 C 334.800 100.927,335.875 102.000,336.175 102.000 C 336.302 102.000,336.182 101.640,335.907 101.200 C 335.438 100.449,334.800 100.120,334.800 100.629 M57.711 109.700 C 56.929 110.711,56.663 111.332,57.136 111.040 C 57.610 110.747,58.557 109.200,58.263 109.200 C 58.172 109.200,57.924 109.425,57.711 109.700 M139.397 110.043 C 131.510 110.330,130.079 110.703,126.621 113.378 C 124.367 115.122,120.800 118.703,120.800 119.223 C 120.800 119.465,120.080 120.354,119.200 121.200 C 118.320 122.046,117.600 122.933,117.600 123.172 C 117.600 123.412,117.060 124.172,116.400 124.863 C 115.740 125.554,115.200 126.362,115.200 126.659 C 115.200 126.957,115.054 127.200,114.875 127.200 C 114.696 127.200,114.302 127.830,114.000 128.600 C 113.698 129.370,113.304 130.000,113.125 130.000 C 112.946 130.000,112.800 130.242,112.800 130.539 C 112.800 130.835,112.541 131.600,112.225 132.239 C 111.351 134.002,110.664 135.732,110.572 136.400 C 110.527 136.730,110.277 137.540,110.017 138.200 C 109.757 138.860,109.575 139.400,109.614 139.400 C 109.653 139.400,109.472 140.191,109.211 141.159 C 108.951 142.126,108.825 143.251,108.931 143.659 C 109.038 144.066,108.962 144.400,108.763 144.400 C 107.963 144.400,108.346 150.343,109.174 150.786 C 110.619 151.559,167.018 151.338,168.214 150.554 C 169.216 149.897,169.527 148.649,168.800 148.200 C 168.580 148.064,168.400 147.513,168.400 146.976 C 168.400 146.439,168.220 146.000,168.000 146.000 C 167.780 146.000,167.600 145.651,167.600 145.224 C 167.600 144.797,167.420 144.336,167.200 144.200 C 166.980 144.064,166.800 143.513,166.800 142.976 C 166.800 142.439,166.620 142.000,166.400 142.000 C 166.180 142.000,166.000 141.640,166.000 141.200 C 166.000 140.760,165.820 140.400,165.600 140.400 C 165.380 140.400,165.200 140.051,165.200 139.624 C 165.200 139.197,165.020 138.736,164.800 138.600 C 164.580 138.464,164.400 137.913,164.400 137.376 C 164.400 136.839,164.265 136.399,164.100 136.397 C 163.653 136.392,162.800 134.374,162.800 133.320 C 162.800 132.814,162.620 132.400,162.400 132.400 C 162.180 132.400,162.000 132.040,162.000 131.600 C 162.000 131.160,161.820 130.800,161.600 130.800 C 161.380 130.800,161.200 130.249,161.200 129.576 C 161.200 128.863,161.033 128.456,160.800 128.600 C 160.580 128.736,160.400 128.477,160.400 128.024 C 160.400 127.571,160.220 127.200,160.000 127.200 C 159.780 127.200,159.600 126.660,159.600 126.000 C 159.600 125.340,159.436 124.800,159.235 124.800 C 159.034 124.800,158.749 124.080,158.600 123.200 C 158.451 122.320,158.185 121.600,158.008 121.600 C 157.831 121.600,157.565 121.105,157.417 120.500 C 157.023 118.897,155.165 115.200,154.753 115.200 C 154.559 115.200,154.400 114.909,154.400 114.553 C 154.400 113.845,152.219 111.746,151.100 111.377 C 150.715 111.250,150.400 110.978,150.400 110.773 C 150.400 110.568,149.716 110.400,148.880 110.400 C 148.044 110.400,147.189 110.261,146.980 110.091 C 146.771 109.921,143.359 109.899,139.397 110.043 M343.910 114.100 C 344.110 114.867,345.200 116.379,345.200 115.890 C 345.200 115.613,343.952 113.200,343.808 113.200 C 343.735 113.200,343.781 113.605,343.910 114.100 M107.842 151.835 C 107.465 152.817,107.556 153.600,108.047 153.600 C 108.293 153.600,108.402 153.249,108.289 152.819 C 108.177 152.390,108.282 151.973,108.523 151.892 C 108.840 151.787,108.839 151.672,108.522 151.476 C 108.281 151.327,107.975 151.488,107.842 151.835 M169.733 152.238 C 169.733 152.547,169.973 152.800,170.267 152.800 C 170.560 152.800,170.800 152.639,170.800 152.443 C 170.800 152.246,170.560 151.993,170.267 151.881 C 169.973 151.768,169.733 151.929,169.733 152.238 M107.600 155.800 C 107.600 156.130,107.780 156.400,108.000 156.400 C 108.220 156.400,108.400 156.130,108.400 155.800 C 108.400 155.470,108.220 155.200,108.000 155.200 C 107.780 155.200,107.600 155.470,107.600 155.800 M165.234 169.753 L 164.269 171.000 165.413 169.912 C 166.043 169.314,166.477 168.753,166.379 168.665 C 166.280 168.577,165.765 169.067,165.234 169.753 " stroke="none" fill="#1ce4ac" fill-rule="evenodd"></path><path id="path4" d="M197.370 227.967 C 198.148 228.826,198.800 229.053,198.800 228.464 C 198.800 228.280,198.308 227.904,197.708 227.631 C 196.618 227.134,196.617 227.135,197.370 227.967 M277.771 229.247 C 277.644 229.452,277.689 229.594,277.870 229.563 C 278.873 229.388,279.277 229.662,279.088 230.386 C 278.975 230.819,278.999 231.157,279.141 231.139 C 279.863 231.045,280.907 231.226,280.720 231.413 C 280.228 231.906,236.674 231.594,236.056 231.093 C 235.624 230.744,235.529 230.738,235.730 231.072 C 235.886 231.332,235.830 231.658,235.607 231.796 C 235.383 231.934,235.200 231.786,235.200 231.466 C 235.200 231.147,234.930 230.782,234.600 230.655 C 234.235 230.515,234.000 230.655,234.000 231.013 C 234.000 231.336,234.225 231.603,234.500 231.606 C 234.843 231.610,234.818 231.728,234.419 231.980 C 234.100 232.182,233.690 232.256,233.509 232.144 C 233.328 232.032,233.206 232.089,233.237 232.270 C 233.462 233.562,233.176 234.015,232.400 233.600 C 231.927 233.347,231.600 233.327,231.600 233.553 C 231.600 233.762,231.825 234.024,232.100 234.135 C 232.500 234.296,232.500 234.343,232.100 234.368 C 231.256 234.422,231.037 234.539,229.922 235.533 C 229.329 236.061,228.784 236.878,228.712 237.347 C 228.640 237.816,228.371 238.159,228.115 238.108 C 227.859 238.058,227.536 238.373,227.397 238.808 C 227.259 239.244,226.798 239.600,226.373 239.600 C 225.948 239.600,225.600 239.780,225.600 240.000 C 225.600 240.220,224.711 240.400,223.624 240.400 C 222.537 240.400,221.536 240.220,221.400 240.000 C 221.264 239.780,220.793 239.600,220.353 239.600 C 219.913 239.600,219.664 239.420,219.800 239.200 C 219.940 238.973,219.604 238.800,219.024 238.800 C 218.461 238.800,218.000 238.620,218.000 238.400 C 218.000 238.180,217.565 238.000,217.033 238.000 C 216.502 238.000,216.007 237.822,215.933 237.603 C 215.860 237.385,215.305 237.166,214.700 237.116 C 214.095 237.066,213.600 236.885,213.600 236.713 C 213.600 236.541,213.240 236.400,212.800 236.400 C 212.360 236.400,212.000 236.220,212.000 236.000 C 212.000 235.780,211.719 235.600,211.376 235.600 C 211.033 235.600,210.854 235.436,210.978 235.235 C 211.102 235.035,210.483 234.749,209.602 234.600 C 208.505 234.415,207.990 234.120,207.968 233.665 C 207.949 233.249,207.861 233.187,207.735 233.500 C 207.401 234.329,206.406 234.068,205.162 232.823 C 203.288 230.949,200.155 228.918,201.083 230.178 C 201.477 230.714,202.160 231.222,202.600 231.306 C 203.316 231.443,203.328 231.491,202.715 231.767 C 202.311 231.948,201.530 231.824,200.809 231.464 C 200.136 231.129,199.688 231.020,199.813 231.221 C 200.245 231.921,152.332 231.900,151.407 231.200 C 150.672 230.644,150.654 230.652,151.156 231.300 C 151.633 231.916,151.598 232.000,150.862 232.000 C 150.282 232.000,150.096 232.185,150.255 232.600 C 150.387 232.942,150.983 233.200,151.643 233.200 C 152.671 233.200,152.800 233.339,152.800 234.443 C 152.800 235.402,152.942 235.631,153.421 235.447 C 153.762 235.316,153.950 235.357,153.838 235.538 C 153.727 235.719,154.424 236.702,155.388 237.722 C 156.459 238.856,157.218 239.387,157.339 239.089 C 157.464 238.781,157.549 238.832,157.568 239.228 C 157.607 239.998,159.386 241.600,160.203 241.600 C 160.531 241.600,160.755 241.747,160.700 241.926 C 160.570 242.352,166.274 248.000,166.834 248.000 C 167.070 248.000,167.997 248.720,168.895 249.600 C 169.793 250.480,170.696 251.200,170.903 251.200 C 171.110 251.200,171.783 251.740,172.400 252.400 C 173.017 253.060,173.694 253.600,173.905 253.600 C 174.115 253.600,174.948 254.223,175.755 254.983 C 176.562 255.744,177.651 256.599,178.175 256.883 C 181.404 258.634,183.200 259.770,183.200 260.064 C 183.200 260.249,183.520 260.400,183.912 260.400 C 184.303 260.400,184.883 260.760,185.200 261.200 C 185.517 261.640,186.097 262.000,186.488 262.000 C 186.880 262.000,187.200 262.180,187.200 262.400 C 187.200 262.620,187.478 262.800,187.817 262.800 C 188.156 262.800,188.820 263.160,189.292 263.600 C 189.764 264.040,190.387 264.400,190.675 264.400 C 190.964 264.400,191.200 264.546,191.200 264.725 C 191.200 264.904,191.830 265.298,192.600 265.600 C 193.370 265.902,194.000 266.296,194.000 266.475 C 194.000 266.654,194.253 266.800,194.562 266.800 C 195.228 266.800,198.541 268.468,198.733 268.900 C 198.807 269.065,199.201 269.200,199.610 269.200 C 200.018 269.200,200.464 269.380,200.600 269.600 C 200.736 269.820,201.287 270.000,201.824 270.000 C 202.361 270.000,202.800 270.180,202.800 270.400 C 202.800 270.620,203.160 270.800,203.600 270.800 C 204.040 270.800,204.400 270.941,204.400 271.113 C 204.400 271.285,204.895 271.466,205.500 271.516 C 206.105 271.566,206.660 271.785,206.733 272.003 C 206.807 272.222,207.392 272.400,208.033 272.400 C 208.675 272.400,209.200 272.580,209.200 272.800 C 209.200 273.020,209.560 273.200,210.000 273.200 C 210.440 273.200,210.800 273.410,210.800 273.667 C 210.800 273.923,210.910 274.024,211.044 273.890 C 211.178 273.756,212.174 273.996,213.258 274.423 C 214.343 274.850,215.583 275.200,216.015 275.200 C 216.447 275.200,216.800 275.380,216.800 275.600 C 216.800 275.820,217.340 276.000,218.000 276.000 C 218.660 276.000,219.200 276.180,219.200 276.400 C 219.200 276.620,219.740 276.800,220.400 276.800 C 221.060 276.800,221.600 276.980,221.600 277.200 C 221.600 277.420,222.140 277.600,222.800 277.600 C 223.460 277.600,224.000 277.780,224.000 278.000 C 224.000 278.220,224.540 278.400,225.200 278.400 C 225.860 278.400,226.400 278.580,226.400 278.800 C 226.400 279.020,227.030 279.200,227.800 279.200 C 228.570 279.200,229.200 279.380,229.200 279.600 C 229.200 279.820,229.729 280.000,230.376 280.000 C 231.023 280.000,231.652 280.161,231.774 280.358 C 231.982 280.694,233.011 280.906,237.100 281.453 C 238.035 281.578,238.800 281.842,238.800 282.040 C 238.800 282.238,239.779 282.400,240.976 282.400 C 242.173 282.400,243.264 282.580,243.400 282.800 C 243.550 283.043,246.471 283.200,250.824 283.200 C 255.341 283.200,258.000 283.052,258.000 282.800 C 258.000 282.571,259.200 282.400,260.800 282.400 C 262.400 282.400,263.600 282.229,263.600 282.000 C 263.600 281.780,264.140 281.600,264.800 281.600 C 265.460 281.600,266.000 281.420,266.000 281.200 C 266.000 280.980,266.540 280.800,267.200 280.800 C 267.860 280.800,268.400 280.620,268.400 280.400 C 268.400 280.180,268.760 280.000,269.200 280.000 C 269.640 280.000,270.000 279.820,270.000 279.600 C 270.000 279.380,270.360 279.200,270.800 279.200 C 271.240 279.200,271.600 279.020,271.600 278.800 C 271.600 278.580,271.960 278.400,272.400 278.400 C 272.840 278.400,273.200 278.220,273.200 278.000 C 273.200 277.780,273.560 277.600,274.000 277.600 C 274.440 277.600,274.800 277.420,274.800 277.200 C 274.800 276.980,275.030 276.800,275.312 276.800 C 275.593 276.800,276.083 276.440,276.400 276.000 C 276.717 275.560,277.255 275.200,277.595 275.200 C 278.308 275.200,281.092 273.404,282.047 272.329 C 282.403 271.928,282.893 271.600,283.136 271.600 C 283.654 271.600,288.800 266.440,288.800 265.920 C 288.800 265.726,289.160 265.180,289.600 264.708 C 290.040 264.236,290.400 263.613,290.400 263.325 C 290.400 263.036,290.574 262.800,290.786 262.800 C 290.999 262.800,291.292 261.900,291.438 260.800 C 291.584 259.700,291.860 258.800,292.052 258.800 C 292.243 258.800,292.400 258.249,292.400 257.576 C 292.400 256.863,292.567 256.456,292.800 256.600 C 293.041 256.749,293.200 256.212,293.200 255.247 C 293.200 254.367,293.380 253.536,293.600 253.400 C 293.820 253.264,294.003 252.128,294.006 250.876 C 294.010 249.259,294.125 248.774,294.400 249.200 C 294.661 249.604,294.790 248.078,294.794 244.524 C 294.797 241.431,294.634 239.145,294.400 239.000 C 294.180 238.864,294.000 238.481,294.000 238.148 C 294.000 237.550,293.124 236.452,292.514 236.286 C 292.341 236.239,292.245 236.065,292.300 235.900 C 292.355 235.735,292.040 235.600,291.600 235.600 C 291.160 235.600,290.800 235.420,290.800 235.200 C 290.800 234.980,290.530 234.800,290.200 234.800 C 289.870 234.800,289.600 234.601,289.600 234.357 C 289.600 234.114,289.323 234.021,288.985 234.150 C 288.635 234.285,288.272 234.131,288.142 233.793 C 288.004 233.433,287.391 233.200,286.584 233.200 C 285.618 233.200,285.186 232.987,285.007 232.423 C 284.812 231.807,284.439 231.664,283.206 231.733 C 281.887 231.807,281.723 231.731,282.126 231.235 C 282.516 230.754,282.473 230.698,281.879 230.921 C 281.476 231.072,281.259 231.029,281.386 230.823 C 281.511 230.621,281.410 230.330,281.162 230.176 C 280.914 230.023,280.576 230.116,280.411 230.383 C 280.203 230.719,280.049 230.631,279.909 230.094 C 279.689 229.255,278.144 228.643,277.771 229.247 M148.800 231.165 C 148.800 231.571,149.823 231.511,150.255 231.078 C 150.408 230.925,150.143 230.800,149.667 230.800 C 149.190 230.800,148.800 230.964,148.800 231.165 M52.400 276.952 C 52.400 277.340,52.670 277.927,53.000 278.257 C 53.811 279.068,53.801 278.100,52.987 277.024 C 52.453 276.318,52.400 276.311,52.400 276.952 M346.300 279.232 C 345.915 279.456,345.600 279.901,345.600 280.220 C 345.600 280.539,345.439 280.800,345.243 280.800 C 345.046 280.800,344.786 281.061,344.663 281.380 C 344.261 282.427,345.369 281.605,346.282 280.178 C 346.766 279.420,347.126 278.805,347.082 278.812 C 347.037 278.819,346.685 279.008,346.300 279.232 M381.762 279.845 C 381.939 280.306,381.837 280.423,381.405 280.257 C 381.072 280.129,380.800 280.178,380.800 280.366 C 380.800 280.553,381.160 280.801,381.600 280.916 C 382.120 281.052,382.400 280.928,382.400 280.563 C 382.400 280.253,382.591 280.000,382.824 280.000 C 383.057 280.000,383.136 279.820,383.000 279.600 C 382.576 278.913,381.487 279.128,381.762 279.845 M17.600 280.527 C 17.600 281.481,18.247 281.673,18.841 280.896 C 19.134 280.513,19.216 280.333,19.024 280.497 C 18.831 280.660,18.432 280.593,18.137 280.348 C 17.727 280.007,17.600 280.050,17.600 280.527 M53.884 281.200 C 53.769 281.640,53.838 282.000,54.037 282.000 C 54.237 282.000,54.403 281.775,54.406 281.500 C 54.410 281.167,54.542 281.200,54.800 281.600 C 55.114 282.085,55.189 282.028,55.194 281.300 C 55.201 280.183,54.171 280.104,53.884 281.200 M55.655 282.000 C 55.607 282.525,53.360 282.587,37.600 282.496 C 25.665 282.426,19.600 282.527,19.600 282.796 C 19.600 283.018,19.600 283.335,19.600 283.500 C 19.600 283.665,19.765 283.800,19.967 283.800 C 20.168 283.800,20.483 283.964,20.667 284.164 C 20.860 284.376,20.790 284.408,20.500 284.241 C 20.175 284.053,20.000 284.217,20.000 284.710 C 20.000 285.712,20.416 286.085,20.997 285.603 C 21.320 285.335,21.467 285.393,21.467 285.789 C 21.467 286.106,21.317 286.272,21.133 286.159 C 20.950 286.045,20.800 286.213,20.800 286.531 C 20.800 287.185,21.989 289.618,22.007 289.000 C 22.013 288.780,22.300 289.230,22.645 290.000 C 22.990 290.770,23.438 291.715,23.640 292.100 C 23.874 292.547,23.861 292.800,23.603 292.800 C 23.382 292.800,23.200 293.520,23.200 294.400 C 23.200 295.280,23.057 296.000,22.882 296.000 C 22.707 296.000,22.519 296.675,22.464 297.500 C 22.410 298.325,22.193 299.060,21.982 299.133 C 21.772 299.207,21.600 300.062,21.600 301.033 C 21.600 302.005,21.420 302.800,21.200 302.800 C 20.980 302.800,20.800 303.509,20.800 304.376 C 20.800 305.243,20.620 306.064,20.400 306.200 C 20.180 306.336,20.000 307.247,20.000 308.224 C 20.000 309.201,19.839 310.000,19.642 310.000 C 19.306 310.000,19.103 310.949,18.547 315.100 C 18.422 316.035,18.158 316.800,17.960 316.800 C 17.762 316.800,17.600 317.610,17.600 318.600 C 17.600 319.590,17.420 320.400,17.200 320.400 C 16.980 320.400,16.800 321.210,16.800 322.200 C 16.800 323.190,16.657 324.000,16.482 324.000 C 16.307 324.000,16.119 324.656,16.065 325.457 C 16.011 326.258,15.795 327.236,15.584 327.631 C 15.373 328.025,15.200 328.889,15.200 329.550 C 15.200 330.212,15.020 330.864,14.800 331.000 C 14.580 331.136,14.400 332.047,14.400 333.024 C 14.400 334.001,14.220 334.800,14.000 334.800 C 13.780 334.800,13.600 335.520,13.600 336.400 C 13.600 337.280,13.420 338.000,13.200 338.000 C 12.980 338.000,12.800 338.900,12.800 340.000 C 12.800 341.100,12.638 342.000,12.440 342.000 C 12.242 342.000,11.984 342.765,11.866 343.700 C 11.528 346.378,11.174 348.134,10.798 349.000 C 10.606 349.440,10.345 350.520,10.217 351.400 C 10.089 352.280,9.916 353.450,9.834 354.000 C 9.751 354.550,9.395 356.106,9.042 357.458 C 8.689 358.809,8.400 360.554,8.400 361.334 C 8.400 362.114,8.220 362.864,8.000 363.000 C 7.780 363.136,7.600 363.957,7.600 364.824 C 7.600 365.691,7.420 366.400,7.200 366.400 C 6.980 366.400,6.800 367.199,6.800 368.176 C 6.800 369.153,6.620 370.064,6.400 370.200 C 6.180 370.336,6.000 371.247,6.000 372.224 C 6.000 373.201,5.820 374.000,5.600 374.000 C 5.380 374.000,5.200 374.619,5.200 375.376 C 5.200 376.133,5.020 376.864,4.800 377.000 C 4.580 377.136,4.400 378.047,4.400 379.024 C 4.400 380.001,4.220 380.800,4.000 380.800 C 3.780 380.800,3.600 381.520,3.600 382.400 C 3.600 383.280,3.420 384.000,3.200 384.000 C 2.980 384.000,2.800 384.900,2.800 386.000 C 2.800 387.100,2.620 388.000,2.400 388.000 C 2.180 388.000,2.000 388.810,2.000 389.800 C 2.000 390.790,1.820 391.600,1.600 391.600 C 1.380 391.600,1.200 392.305,1.200 393.167 C 1.200 394.028,1.046 394.793,0.857 394.867 C 0.669 394.940,0.387 396.151,0.231 397.557 L -0.053 400.113 3.874 399.828 C 6.033 399.671,7.860 399.376,7.933 399.171 C 8.007 398.967,8.772 398.800,9.633 398.800 C 10.495 398.800,11.200 398.620,11.200 398.400 C 11.200 398.180,12.010 398.000,13.000 398.000 C 13.990 398.000,14.800 397.820,14.800 397.600 C 14.800 397.380,15.610 397.200,16.600 397.200 C 17.590 397.200,18.400 397.020,18.400 396.800 C 18.400 396.580,19.120 396.400,20.000 396.400 C 20.880 396.400,21.600 396.220,21.600 396.000 C 21.600 395.780,22.410 395.600,23.400 395.600 C 24.390 395.600,25.200 395.420,25.200 395.200 C 25.200 394.980,25.920 394.800,26.800 394.800 C 27.680 394.800,28.400 394.620,28.400 394.400 C 28.400 394.180,29.199 394.000,30.176 394.000 C 31.153 394.000,32.064 393.820,32.200 393.600 C 32.336 393.380,33.056 393.200,33.800 393.200 C 34.544 393.200,35.264 393.020,35.400 392.800 C 35.536 392.580,36.256 392.400,37.000 392.400 C 37.744 392.400,38.452 392.239,38.574 392.042 C 38.696 391.845,40.238 391.556,42.000 391.400 C 43.762 391.244,45.304 390.955,45.426 390.758 C 45.548 390.561,46.346 390.400,47.200 390.400 C 48.054 390.400,48.864 390.220,49.000 390.000 C 49.136 389.780,49.946 389.600,50.800 389.600 C 51.654 389.600,52.464 389.420,52.600 389.200 C 52.736 388.980,53.456 388.800,54.200 388.800 C 54.944 388.800,55.664 388.620,55.800 388.400 C 55.936 388.180,56.746 388.000,57.600 388.000 C 58.454 388.000,59.264 387.820,59.400 387.600 C 59.536 387.380,60.357 387.200,61.224 387.200 C 62.091 387.200,62.800 387.020,62.800 386.800 C 62.800 386.580,63.509 386.400,64.376 386.400 C 65.243 386.400,66.052 386.239,66.174 386.042 C 66.295 385.845,67.116 385.575,67.997 385.442 C 68.879 385.309,70.321 385.091,71.203 384.958 C 72.084 384.825,72.905 384.555,73.026 384.358 C 73.148 384.161,74.047 384.000,75.024 384.000 C 76.001 384.000,76.800 383.820,76.800 383.600 C 76.800 383.380,77.520 383.200,78.400 383.200 C 79.280 383.200,80.000 383.020,80.000 382.800 C 80.000 382.580,80.720 382.400,81.600 382.400 C 82.480 382.400,83.200 382.220,83.200 382.000 C 83.200 381.780,84.100 381.600,85.200 381.600 C 86.300 381.600,87.200 381.420,87.200 381.200 C 87.200 380.980,87.794 380.800,88.520 380.800 C 89.246 380.800,90.011 380.630,90.220 380.421 C 90.429 380.213,91.365 379.998,92.300 379.943 C 93.235 379.888,94.000 379.699,94.000 379.522 C 94.000 379.345,94.720 379.200,95.600 379.200 C 96.480 379.200,97.200 379.020,97.200 378.800 C 97.200 378.580,97.920 378.400,98.800 378.400 C 99.680 378.400,100.400 378.220,100.400 378.000 C 100.400 377.780,101.300 377.600,102.400 377.600 C 103.500 377.600,104.400 377.420,104.400 377.200 C 104.400 376.980,105.120 376.800,106.000 376.800 C 106.880 376.800,107.600 376.620,107.600 376.400 C 107.600 376.180,108.320 376.000,109.200 376.000 C 110.080 376.000,110.800 376.180,110.800 376.400 C 110.800 376.620,111.171 376.800,111.624 376.800 C 112.077 376.800,112.336 376.980,112.200 377.200 C 112.064 377.420,112.323 377.600,112.776 377.600 C 113.229 377.600,113.600 377.780,113.600 378.000 C 113.600 378.220,114.050 378.400,114.600 378.400 C 115.150 378.400,115.600 378.580,115.600 378.800 C 115.600 379.020,116.050 379.200,116.600 379.200 C 117.150 379.200,117.600 379.380,117.600 379.600 C 117.600 379.820,117.960 380.000,118.400 380.000 C 118.840 380.000,119.200 380.180,119.200 380.400 C 119.200 380.620,119.549 380.800,119.976 380.800 C 120.403 380.800,120.864 380.980,121.000 381.200 C 121.136 381.420,121.687 381.600,122.224 381.600 C 122.761 381.600,123.200 381.780,123.200 382.000 C 123.200 382.220,123.560 382.400,124.000 382.400 C 124.440 382.400,124.800 382.580,124.800 382.800 C 124.800 383.020,125.340 383.200,126.000 383.200 C 126.660 383.200,127.200 383.380,127.200 383.600 C 127.200 383.820,127.560 384.000,128.000 384.000 C 128.440 384.000,128.800 384.180,128.800 384.400 C 128.800 384.620,129.239 384.800,129.776 384.800 C 130.313 384.800,130.864 384.980,131.000 385.200 C 131.136 385.420,131.687 385.600,132.224 385.600 C 132.761 385.600,133.200 385.780,133.200 386.000 C 133.200 386.220,133.740 386.400,134.400 386.400 C 135.060 386.400,135.600 386.580,135.600 386.800 C 135.600 387.020,136.140 387.200,136.800 387.200 C 137.460 387.200,138.000 387.380,138.000 387.600 C 138.000 387.820,138.529 388.000,139.176 388.000 C 139.823 388.000,140.464 388.180,140.600 388.400 C 140.736 388.620,141.276 388.800,141.800 388.800 C 142.324 388.800,142.864 388.980,143.000 389.200 C 143.136 389.420,143.642 389.604,144.124 389.610 C 144.606 389.615,146.036 389.966,147.303 390.390 C 148.569 390.814,150.688 391.283,152.012 391.433 C 153.335 391.583,154.514 391.862,154.633 392.053 C 154.751 392.244,155.647 392.400,156.624 392.400 C 157.601 392.400,158.400 392.580,158.400 392.800 C 158.400 393.020,159.311 393.200,160.424 393.200 C 161.671 393.200,162.352 393.353,162.200 393.600 C 162.046 393.850,162.863 394.000,164.376 394.000 C 165.725 394.000,166.800 394.177,166.800 394.400 C 166.800 394.622,167.859 394.800,169.176 394.800 C 170.483 394.800,171.664 394.980,171.800 395.200 C 171.936 395.420,173.477 395.600,175.224 395.600 C 177.075 395.600,178.400 395.767,178.400 396.000 C 178.400 396.244,180.267 396.400,183.200 396.400 C 186.133 396.400,188.000 396.556,188.000 396.800 C 188.000 397.058,192.267 397.200,200.000 397.200 C 207.733 397.200,212.000 397.058,212.000 396.800 C 212.000 396.556,213.867 396.400,216.800 396.400 C 219.733 396.400,221.600 396.244,221.600 396.000 C 221.600 395.769,222.867 395.600,224.600 395.600 C 226.333 395.600,227.600 395.431,227.600 395.200 C 227.600 394.971,228.800 394.800,230.400 394.800 C 232.000 394.800,233.200 394.629,233.200 394.400 C 233.200 394.180,234.179 394.000,235.376 394.000 C 236.573 394.000,237.664 393.820,237.800 393.600 C 237.936 393.380,238.847 393.200,239.824 393.200 C 240.801 393.200,241.600 393.020,241.600 392.800 C 241.600 392.580,242.320 392.400,243.200 392.400 C 244.080 392.400,244.800 392.220,244.800 392.000 C 244.800 391.780,245.565 391.596,246.500 391.590 C 247.435 391.585,248.920 391.388,249.800 391.153 C 250.680 390.918,251.987 390.632,252.704 390.519 C 253.421 390.405,254.106 390.151,254.227 389.956 C 254.348 389.760,254.966 389.600,255.600 389.600 C 256.234 389.600,256.864 389.420,257.000 389.200 C 257.136 388.980,257.777 388.800,258.424 388.800 C 259.071 388.800,259.600 388.620,259.600 388.400 C 259.600 388.180,260.140 388.000,260.800 388.000 C 261.460 388.000,262.000 387.820,262.000 387.600 C 262.000 387.380,262.540 387.200,263.200 387.200 C 263.860 387.200,264.400 387.020,264.400 386.800 C 264.400 386.580,264.940 386.400,265.600 386.400 C 266.260 386.400,266.800 386.220,266.800 386.000 C 266.800 385.780,267.340 385.600,268.000 385.600 C 268.660 385.600,269.200 385.420,269.200 385.200 C 269.200 384.980,269.650 384.800,270.200 384.800 C 270.750 384.800,271.200 384.620,271.200 384.400 C 271.200 384.180,271.650 384.000,272.200 384.000 C 272.750 384.000,273.200 383.820,273.200 383.600 C 273.200 383.380,273.549 383.200,273.976 383.200 C 274.403 383.200,274.864 383.020,275.000 382.800 C 275.136 382.580,275.597 382.400,276.024 382.400 C 276.451 382.400,276.800 382.220,276.800 382.000 C 276.800 381.780,277.340 381.600,278.000 381.600 C 278.660 381.600,279.200 381.420,279.200 381.200 C 279.200 380.980,279.560 380.800,280.000 380.800 C 280.440 380.800,280.800 380.620,280.800 380.400 C 280.800 380.180,281.160 380.000,281.600 380.000 C 282.040 380.000,282.400 379.820,282.400 379.600 C 282.400 379.380,282.760 379.200,283.200 379.200 C 283.640 379.200,284.000 379.020,284.000 378.800 C 284.000 378.580,284.450 378.400,285.000 378.400 C 285.550 378.400,286.000 378.220,286.000 378.000 C 286.000 377.780,286.371 377.600,286.824 377.600 C 287.277 377.600,287.536 377.420,287.400 377.200 C 287.264 376.980,287.488 376.800,287.897 376.800 C 288.809 376.800,290.793 375.911,290.797 375.500 C 290.799 375.335,291.147 375.200,291.571 375.200 C 291.996 375.200,292.604 374.939,292.924 374.619 C 293.243 374.300,293.591 374.124,293.695 374.229 C 293.800 374.334,294.114 374.145,294.392 373.810 C 294.670 373.474,295.221 373.200,295.616 373.200 C 296.010 373.200,296.393 373.065,296.467 372.900 C 296.540 372.735,297.455 372.167,298.500 371.637 C 299.545 371.108,300.400 370.523,300.400 370.337 C 300.400 370.152,300.760 370.000,301.200 370.000 C 301.640 370.000,302.000 369.820,302.000 369.600 C 302.000 369.380,302.278 369.200,302.617 369.200 C 302.956 369.200,303.589 368.869,304.023 368.464 C 304.458 368.059,305.305 367.474,305.907 367.164 C 306.508 366.854,307.349 366.285,307.775 365.900 C 308.202 365.515,308.747 365.200,308.987 365.200 C 309.227 365.200,309.683 364.840,310.000 364.400 C 310.317 363.960,310.857 363.600,311.200 363.600 C 311.543 363.600,312.083 363.240,312.400 362.800 C 312.717 362.360,313.257 362.000,313.600 362.000 C 313.943 362.000,314.483 361.640,314.800 361.200 C 315.117 360.760,315.657 360.400,316.000 360.400 C 316.343 360.400,316.883 360.040,317.200 359.600 C 317.517 359.160,317.929 358.800,318.115 358.800 C 318.515 358.800,321.341 356.734,321.533 356.300 C 321.607 356.135,321.856 356.000,322.086 356.000 C 322.317 356.000,322.797 355.683,323.153 355.296 C 323.509 354.908,324.488 354.079,325.330 353.453 C 326.171 352.826,327.467 351.706,328.210 350.964 C 328.952 350.221,329.772 349.565,330.032 349.507 C 330.292 349.448,332.099 347.825,334.048 345.900 C 335.997 343.975,337.698 342.400,337.827 342.400 C 337.957 342.400,338.769 341.687,339.631 340.816 C 340.494 339.944,341.200 339.327,341.200 339.444 C 341.200 339.836,342.242 338.609,342.510 337.900 C 342.656 337.515,343.020 337.200,343.320 337.200 C 343.620 337.200,344.102 336.756,344.393 336.214 C 344.683 335.671,345.046 335.305,345.200 335.400 C 345.354 335.495,345.717 335.129,346.007 334.586 C 346.298 334.044,346.685 333.600,346.868 333.600 C 347.050 333.600,347.200 333.410,347.200 333.178 C 347.200 332.946,348.270 331.706,349.578 330.422 C 350.885 329.139,351.845 327.979,351.711 327.844 C 351.577 327.710,351.767 327.600,352.133 327.600 C 352.500 327.600,352.800 327.330,352.800 327.000 C 352.800 326.670,352.980 326.400,353.200 326.400 C 353.420 326.400,353.600 326.199,353.600 325.954 C 353.600 325.709,354.265 324.899,355.078 324.154 C 355.891 323.409,356.411 322.800,356.234 322.800 C 356.056 322.800,356.336 322.446,356.856 322.013 C 357.375 321.581,357.667 321.221,357.504 321.213 C 357.341 321.206,357.746 320.686,358.404 320.057 C 359.062 319.428,359.600 318.682,359.600 318.400 C 359.600 318.118,360.140 317.371,360.800 316.740 C 361.460 316.109,362.000 315.406,362.000 315.178 C 362.000 314.950,362.450 314.314,363.000 313.764 C 363.550 313.214,364.000 312.620,364.000 312.444 C 364.000 312.268,364.450 311.601,365.000 310.962 C 365.549 310.323,365.999 309.667,366.000 309.505 C 366.000 309.220,366.859 308.081,367.900 306.984 C 368.175 306.694,368.400 306.264,368.400 306.029 C 368.400 305.793,368.559 305.600,368.753 305.600 C 368.948 305.600,369.210 305.285,369.336 304.900 C 369.550 304.248,370.024 303.459,372.279 300.004 C 372.763 299.263,373.079 298.528,372.982 298.370 C 372.884 298.213,373.074 297.981,373.402 297.854 C 373.731 297.728,374.000 297.259,374.000 296.813 C 374.000 296.366,374.145 296.000,374.323 296.000 C 374.661 296.000,376.000 293.227,376.000 292.528 C 376.000 292.306,376.360 291.798,376.800 291.400 C 377.240 291.002,377.600 290.333,377.600 289.914 C 377.600 289.496,377.780 289.264,378.000 289.400 C 378.330 289.604,378.499 288.868,378.374 287.770 C 378.359 287.643,378.693 287.238,379.115 286.870 C 379.575 286.469,379.826 285.829,379.740 285.276 C 379.659 284.747,379.764 284.454,379.987 284.592 C 380.523 284.923,380.998 282.838,380.500 282.340 C 380.232 282.072,380.150 282.314,380.252 283.070 C 380.335 283.691,380.286 283.930,380.142 283.600 C 379.998 283.270,379.682 282.863,379.440 282.696 C 378.683 282.175,344.681 282.404,343.965 282.936 C 343.073 283.598,342.323 285.905,342.886 286.253 C 343.167 286.427,343.208 286.336,343.000 286.000 C 342.784 285.651,342.833 285.573,343.145 285.766 C 343.776 286.156,343.327 286.800,342.422 286.800 C 341.570 286.800,340.400 288.411,340.400 289.586 C 340.400 290.050,340.137 290.400,339.787 290.400 C 339.451 290.400,339.054 290.715,338.907 291.099 C 338.759 291.483,338.239 292.198,337.750 292.686 C 337.262 293.175,336.745 293.943,336.602 294.393 C 336.459 294.843,336.175 295.108,335.971 294.982 C 335.767 294.856,335.600 295.134,335.600 295.600 C 335.600 296.066,335.420 296.336,335.200 296.200 C 334.980 296.064,334.798 296.188,334.796 296.476 C 334.793 296.764,334.169 297.604,333.409 298.343 C 332.649 299.082,331.918 300.027,331.786 300.443 C 331.654 300.859,331.378 301.200,331.173 301.200 C 330.968 301.200,330.800 301.470,330.800 301.800 C 330.800 302.130,330.620 302.400,330.400 302.400 C 330.180 302.400,330.000 302.681,330.000 303.024 C 330.000 303.367,329.821 303.536,329.602 303.401 C 329.383 303.266,328.994 303.615,328.737 304.177 C 328.481 304.740,328.090 305.200,327.869 305.200 C 327.648 305.200,327.561 305.295,327.677 305.410 C 327.792 305.526,326.652 306.885,325.144 308.430 C 323.635 309.975,322.400 311.323,322.400 311.425 C 322.400 311.699,315.652 318.400,315.377 318.400 C 315.001 318.400,314.021 319.487,314.218 319.685 C 314.318 319.784,313.925 320.119,313.347 320.429 C 312.768 320.738,311.148 322.132,309.747 323.526 C 308.346 324.920,307.195 325.912,307.188 325.731 C 307.181 325.549,306.992 325.715,306.768 326.100 C 306.544 326.485,306.139 326.800,305.868 326.800 C 305.598 326.800,305.117 327.160,304.800 327.600 C 304.483 328.040,303.893 328.400,303.488 328.400 C 303.084 328.400,302.864 328.580,303.000 328.800 C 303.136 329.020,303.039 329.200,302.784 329.200 C 302.529 329.200,301.817 329.740,301.200 330.400 C 300.583 331.060,299.831 331.600,299.528 331.600 C 299.225 331.600,298.717 331.960,298.400 332.400 C 298.083 332.840,297.593 333.200,297.312 333.200 C 297.030 333.200,296.800 333.380,296.800 333.600 C 296.800 333.820,296.530 334.000,296.200 334.000 C 295.870 334.000,295.600 334.180,295.600 334.400 C 295.600 334.620,295.340 334.800,295.023 334.800 C 294.705 334.800,294.202 335.148,293.904 335.573 C 293.606 335.998,293.101 336.403,292.781 336.473 C 292.462 336.543,291.909 336.915,291.553 337.300 C 291.197 337.685,290.652 338.000,290.341 338.000 C 290.031 338.000,289.517 338.360,289.200 338.800 C 288.883 339.240,288.303 339.600,287.912 339.600 C 287.520 339.600,287.200 339.780,287.200 340.000 C 287.200 340.220,286.964 340.400,286.675 340.400 C 286.387 340.400,285.764 340.760,285.292 341.200 C 284.820 341.640,284.266 342.000,284.061 342.000 C 283.856 342.000,282.364 342.731,280.744 343.624 C 279.125 344.517,277.485 345.348,277.100 345.471 C 276.715 345.593,276.400 345.852,276.400 346.047 C 276.400 346.241,276.040 346.400,275.600 346.400 C 275.160 346.400,274.800 346.580,274.800 346.800 C 274.800 347.020,274.440 347.200,274.000 347.200 C 273.560 347.200,273.200 347.341,273.200 347.513 C 273.200 347.685,272.345 348.074,271.300 348.378 C 270.255 348.682,269.310 349.058,269.200 349.213 C 268.902 349.633,265.530 351.200,264.925 351.200 C 264.636 351.200,264.400 351.380,264.400 351.600 C 264.400 351.820,264.038 352.000,263.595 352.000 C 263.152 352.000,262.432 352.180,261.995 352.400 C 261.558 352.620,260.842 352.980,260.405 353.200 C 259.968 353.420,259.338 353.600,259.005 353.600 C 258.672 353.600,258.400 353.780,258.400 354.000 C 258.400 354.220,257.860 354.400,257.200 354.400 C 256.540 354.400,256.000 354.580,256.000 354.800 C 256.000 355.020,255.561 355.200,255.024 355.200 C 254.487 355.200,253.936 355.380,253.800 355.600 C 253.664 355.820,253.124 356.000,252.600 356.000 C 252.076 356.000,251.536 356.180,251.400 356.400 C 251.264 356.620,250.623 356.800,249.976 356.800 C 249.329 356.800,248.800 356.980,248.800 357.200 C 248.800 357.420,248.260 357.600,247.600 357.600 C 246.940 357.600,246.400 357.761,246.400 357.958 C 246.400 358.155,245.635 358.420,244.700 358.547 C 241.423 358.992,240.891 359.096,240.418 359.389 C 240.156 359.551,239.459 359.751,238.870 359.834 C 235.817 360.262,234.562 360.525,234.200 360.812 C 233.980 360.986,232.900 361.175,231.800 361.232 C 230.700 361.288,229.620 361.465,229.400 361.624 C 228.970 361.936,226.452 362.309,222.600 362.632 C 221.280 362.743,219.840 363.001,219.400 363.205 C 217.666 364.012,189.400 364.760,188.658 364.018 C 188.428 363.788,186.583 363.600,184.544 363.600 C 182.511 363.600,180.736 363.420,180.600 363.200 C 180.464 362.980,179.024 362.800,177.400 362.800 C 175.776 362.800,174.336 362.620,174.200 362.400 C 174.064 362.180,173.074 362.000,172.000 362.000 C 170.926 362.000,169.936 361.820,169.800 361.600 C 169.664 361.380,168.753 361.200,167.776 361.200 C 166.799 361.200,166.000 361.037,166.000 360.839 C 166.000 360.640,165.145 360.384,164.100 360.270 C 162.201 360.064,159.484 359.528,157.600 358.989 C 157.050 358.832,155.925 358.616,155.100 358.510 C 154.275 358.403,153.600 358.155,153.600 357.958 C 153.600 357.761,153.071 357.600,152.424 357.600 C 151.777 357.600,151.136 357.420,151.000 357.200 C 150.864 356.980,150.313 356.800,149.776 356.800 C 149.239 356.800,148.800 356.620,148.800 356.400 C 148.800 356.180,148.260 356.000,147.600 356.000 C 146.940 356.000,146.400 355.859,146.400 355.687 C 146.400 355.515,145.913 355.334,145.318 355.285 C 144.722 355.236,144.056 355.016,143.838 354.798 C 143.619 354.579,143.026 354.400,142.520 354.400 C 142.014 354.400,141.600 354.220,141.600 354.000 C 141.600 353.780,141.060 353.600,140.400 353.600 C 139.740 353.600,139.199 353.465,139.197 353.300 C 139.193 352.894,137.214 352.000,136.320 352.000 C 135.924 352.000,135.600 351.820,135.600 351.600 C 135.600 351.380,135.240 351.200,134.800 351.200 C 134.360 351.200,134.000 351.020,134.000 350.800 C 134.000 350.580,133.640 350.400,133.200 350.400 C 132.760 350.400,132.400 350.220,132.400 350.000 C 132.400 349.780,131.860 349.600,131.200 349.600 C 130.540 349.600,130.000 349.420,130.000 349.200 C 130.000 348.980,129.640 348.800,129.200 348.800 C 128.760 348.800,128.400 348.620,128.400 348.400 C 128.400 348.180,128.040 348.000,127.600 348.000 C 127.160 348.000,126.800 347.820,126.800 347.600 C 126.800 347.380,126.440 347.200,126.000 347.200 C 125.560 347.200,125.200 347.020,125.200 346.800 C 125.200 346.580,124.840 346.400,124.400 346.400 C 123.960 346.400,123.600 346.254,123.600 346.075 C 123.600 345.896,122.970 345.502,122.200 345.200 C 121.430 344.898,120.800 344.504,120.800 344.325 C 120.800 344.146,120.545 344.000,120.232 344.000 C 119.565 344.000,117.060 342.735,116.867 342.300 C 116.793 342.135,116.403 342.000,116.000 342.000 C 115.597 342.000,115.196 341.788,115.109 341.528 C 115.008 341.224,114.676 341.172,114.176 341.383 C 113.749 341.563,112.680 341.787,111.800 341.882 C 110.920 341.976,110.154 342.180,110.098 342.334 C 110.041 342.488,109.366 342.584,108.596 342.548 C 107.826 342.512,107.097 342.644,106.975 342.841 C 106.853 343.038,106.310 343.200,105.769 343.200 C 105.228 343.200,103.433 343.563,101.779 344.006 C 100.126 344.449,98.329 344.848,97.786 344.893 C 97.244 344.938,96.800 345.097,96.800 345.247 C 96.800 345.504,96.145 345.625,91.500 346.232 C 90.455 346.369,89.600 346.624,89.600 346.800 C 89.600 346.976,88.745 347.231,87.700 347.368 C 82.958 347.987,82.416 348.102,82.625 348.440 C 82.747 348.638,82.153 348.800,81.304 348.800 C 80.455 348.800,79.589 348.970,79.380 349.179 C 79.171 349.387,78.235 349.602,77.300 349.657 C 76.365 349.712,75.600 349.901,75.600 350.078 C 75.600 350.255,74.880 350.400,74.000 350.400 C 73.120 350.400,72.400 350.580,72.400 350.800 C 72.400 351.020,71.601 351.200,70.624 351.200 C 69.647 351.200,68.736 351.380,68.600 351.600 C 68.464 351.820,67.744 352.000,67.000 352.000 C 66.256 352.000,65.536 352.180,65.400 352.400 C 65.264 352.620,64.544 352.800,63.800 352.800 C 63.056 352.800,62.336 352.980,62.200 353.200 C 62.064 353.420,61.254 353.600,60.400 353.600 C 59.546 353.600,58.736 353.780,58.600 354.000 C 58.464 354.220,57.643 354.400,56.776 354.400 C 55.909 354.400,55.200 354.580,55.200 354.800 C 55.200 355.020,54.401 355.200,53.424 355.200 C 52.447 355.200,51.548 355.360,51.427 355.556 C 51.220 355.892,50.207 356.128,46.697 356.658 C 45.871 356.782,45.095 357.045,44.974 357.242 C 44.679 357.720,42.400 357.703,42.400 357.224 C 42.400 357.017,42.580 356.736,42.800 356.600 C 43.020 356.464,43.200 355.553,43.200 354.576 C 43.200 353.599,43.380 352.800,43.600 352.800 C 43.820 352.800,44.000 351.979,44.000 350.976 C 44.000 349.863,44.156 349.249,44.400 349.400 C 44.647 349.552,44.800 348.871,44.800 347.624 C 44.800 346.511,44.980 345.600,45.200 345.600 C 45.420 345.600,45.600 344.880,45.600 344.000 C 45.600 343.120,45.780 342.400,46.000 342.400 C 46.220 342.400,46.400 341.590,46.400 340.600 C 46.400 339.610,46.580 338.800,46.800 338.800 C 47.020 338.800,47.200 338.091,47.200 337.224 C 47.200 336.357,47.380 335.536,47.600 335.400 C 47.820 335.264,48.000 334.353,48.000 333.376 C 48.000 332.399,48.180 331.600,48.400 331.600 C 48.620 331.600,48.800 330.891,48.800 330.024 C 48.800 329.157,48.980 328.336,49.200 328.200 C 49.420 328.064,49.600 327.153,49.600 326.176 C 49.600 325.199,49.780 324.400,50.000 324.400 C 50.220 324.400,50.400 323.691,50.400 322.824 C 50.400 321.957,50.580 321.136,50.800 321.000 C 51.020 320.864,51.200 320.043,51.200 319.176 C 51.200 318.309,51.380 317.600,51.600 317.600 C 51.820 317.600,52.000 316.715,52.000 315.633 C 52.000 314.552,52.170 313.607,52.379 313.533 C 52.587 313.460,52.800 312.545,52.853 311.500 C 52.906 310.455,53.096 309.600,53.275 309.600 C 53.454 309.600,53.600 309.006,53.600 308.280 C 53.600 307.554,53.762 306.789,53.959 306.580 C 54.156 306.371,54.411 305.480,54.525 304.600 C 54.910 301.611,55.282 299.801,55.594 299.400 C 55.765 299.180,56.011 298.100,56.141 297.000 C 56.271 295.900,56.553 294.280,56.767 293.400 C 56.981 292.520,57.257 291.224,57.380 290.521 C 57.503 289.817,57.787 288.761,58.010 288.175 C 58.343 287.297,58.311 287.149,57.828 287.334 C 57.434 287.485,57.314 287.369,57.462 286.982 C 57.584 286.664,57.860 286.513,58.075 286.646 C 58.620 286.983,57.194 284.291,56.567 283.800 C 56.286 283.580,55.978 282.950,55.883 282.400 C 55.787 281.850,55.684 281.670,55.655 282.000 " stroke="none" fill="#04abf1" fill-rule="evenodd"></path></g></svg>